<?xml version="1.0" encoding="utf-8"?>
<!-- Generator: Adobe Illustrator 19.1.1, SVG Export Plug-In . SVG Version: 6.00 Build 0)  -->
<svg version="1.1" id="Design" xmlns="http://www.w3.org/2000/svg" xmlns:xlink="http://www.w3.org/1999/xlink" x="0px" y="0px"
	 viewBox="0 0 288 288" style="enable-background:new 0 0 288 288;" xml:space="preserve">
<style type="text/css">
	.st0{fill:url(#SVGID_1_);}
	.st1{fill:url(#SVGID_2_);}
	.st2{fill:url(#triangle36_1_);}
	.st3{fill:url(#SVGID_3_);}
	.st4{fill:url(#SVGID_4_);}
	.st5{fill:url(#SVGID_5_);}
	.st6{fill:url(#SVGID_6_);}
	.st7{fill:url(#SVGID_7_);}
	.st8{fill:url(#SVGID_8_);}
	.st9{fill:url(#SVGID_9_);}
	.st10{fill:url(#SVGID_10_);}
	.st11{fill:url(#SVGID_11_);}
	.st12{fill:url(#SVGID_12_);}
	.st13{fill:url(#SVGID_13_);}
	.st14{fill:url(#SVGID_14_);}
	.st15{fill:url(#SVGID_15_);}
	.st16{fill:url(#triangle36_2_);}
	.st17{fill:url(#triangle36_3_);}
	.st18{fill:url(#triangle36_4_);}
	.st19{fill:url(#SVGID_16_);}
	.st20{fill:url(#SVGID_17_);}
	.st21{fill:url(#SVGID_18_);}
	.st22{fill:url(#triangle36_5_);}
	.st23{fill:url(#SVGID_19_);}
	.st24{fill:url(#SVGID_20_);}
	.st25{fill:url(#SVGID_21_);}
	.st26{fill:url(#triangle36_6_);}
	.st27{fill:url(#triangle36_7_);}
	.st28{fill:url(#triangle36_8_);}
	.st29{fill:url(#triangle36_9_);}
	.st30{fill:url(#SVGID_22_);}
	.st31{fill:url(#SVGID_23_);}
	.st32{fill:url(#SVGID_24_);}
	.st33{fill:url(#SVGID_25_);}
	.st34{fill:url(#triangle36_10_);}
	.st35{fill:url(#triangle36_11_);}
	.st36{fill:url(#triangle36_12_);}
	.st37{fill:url(#SVGID_26_);}
	.st38{fill:url(#SVGID_27_);}
	.st39{fill:url(#SVGID_28_);}
	.st40{fill:url(#SVGID_29_);}
	.st41{fill:url(#SVGID_30_);}
	.st42{fill:url(#triangle36_13_);}
	.st43{fill:url(#triangle36_14_);}
	.st44{fill:url(#triangle36_15_);}
	.st45{fill:url(#SVGID_31_);}
	.st46{fill:url(#SVGID_32_);}
	.st47{fill:url(#SVGID_33_);}
	.st48{fill:url(#SVGID_34_);}
	.st49{fill:url(#SVGID_35_);}
	.st50{fill:url(#triangle36_16_);}
	.st51{fill:url(#SVGID_36_);}
	.st52{fill:url(#SVGID_37_);}
	.st53{fill:url(#SVGID_38_);}
	.st54{fill:url(#SVGID_39_);}
	.st55{fill:url(#SVGID_40_);}
	.st56{fill:url(#SVGID_41_);}
	.st57{fill:url(#triangle36_17_);}
	.st58{fill:url(#triangle36_18_);}
	.st59{fill:url(#SVGID_42_);}
	.st60{fill:url(#SVGID_43_);}
	.st61{fill:url(#SVGID_44_);}
	.st62{fill:url(#SVGID_45_);}
	.st63{fill:url(#SVGID_46_);}
	.st64{fill:url(#SVGID_47_);}
	.st65{fill:url(#SVGID_48_);}
	.st66{fill:url(#SVGID_49_);}
	.st67{fill:url(#SVGID_50_);}
	.st68{fill:url(#SVGID_51_);}
	.st69{fill:url(#SVGID_52_);}
	.st70{fill:url(#SVGID_53_);}
	.st71{fill:url(#SVGID_54_);}
	.st72{fill:url(#SVGID_55_);}
	.st73{fill:url(#SVGID_56_);}
	.st74{fill:url(#SVGID_57_);}
	.st75{fill:url(#triangle36_19_);}
	.st76{fill:url(#triangle36_20_);}
	.st77{fill:url(#triangle36_21_);}
	.st78{fill:url(#triangle36_22_);}
	.st79{fill:url(#triangle36_23_);}
	.st80{fill:url(#triangle36_24_);}
	.st81{fill:url(#triangle36_25_);}
	.st82{fill:url(#SVGID_58_);}
	.st83{fill:url(#SVGID_59_);}
	.st84{fill:url(#SVGID_60_);}
	.st85{fill:url(#SVGID_61_);}
	.st86{fill:url(#triangle36_26_);}
	.st87{fill:url(#triangle36_27_);}
	.st88{fill:url(#triangle36_28_);}
	.st89{fill:url(#triangle36_29_);}
	.st90{fill:url(#triangle36_30_);}
	.st91{fill:url(#SVGID_62_);}
	.st92{fill:url(#SVGID_63_);}
	.st93{fill:url(#triangle36_31_);}
	.st94{fill:url(#triangle36_32_);}
	.st95{fill:url(#SVGID_64_);}
	.st96{fill:url(#SVGID_65_);}
	.st97{fill:url(#triangle36_33_);}
	.st98{fill:url(#SVGID_66_);}
	.st99{fill:url(#triangle36_34_);}
	.st100{fill:url(#triangle36_35_);}
	.st101{fill:url(#SVGID_67_);}
	.st102{fill:url(#SVGID_68_);}
	.st103{fill:url(#SVGID_69_);}
	.st104{fill:url(#SVGID_70_);}
	.st105{fill:url(#SVGID_71_);}
	.st106{fill:url(#SVGID_72_);}
</style>
<g>
	<g>
		
			<linearGradient id="SVGID_1_" gradientUnits="userSpaceOnUse" x1="-926.9943" y1="1255.136" x2="-924.4294" y2="1252.571" gradientTransform="matrix(-28 0 0 71 -25617 -88738.1406)">
			<stop  offset="0" style="stop-color:#9B9B9B"/>
			<stop  offset="1" style="stop-color:#9F9F9F"/>
		</linearGradient>
		<polygon class="st0" points="288,288 288,183.4 283.5,172.1 278.6,288 		"/>
		
			<linearGradient id="SVGID_2_" gradientUnits="userSpaceOnUse" x1="-930.4058" y1="1254.2228" x2="-927.8499" y2="1251.667" gradientTransform="matrix(-49 0 0 71 -45276.9844 -88738.1406)">
			<stop  offset="0" style="stop-color:#8F8F8F"/>
			<stop  offset="1" style="stop-color:#9D9D9D"/>
		</linearGradient>
		<polygon class="st1" points="278.6,288 283.5,172.1 158.6,185 229.9,288 		"/>
		
			<linearGradient id="triangle36_1_" gradientUnits="userSpaceOnUse" x1="-920.1295" y1="1271.6008" x2="-917.5735" y2="1269.0447" gradientTransform="matrix(-21 0 0 43 -19134 -54511.1094)">
			<stop  offset="0" style="stop-color:#999999"/>
			<stop  offset="1" style="stop-color:#A6A6A6"/>
		</linearGradient>
		<polygon id="triangle36_341_" class="st2" points="189.2,128.5 168.8,167 135.6,56.6 		"/>
		
			<linearGradient id="SVGID_3_" gradientUnits="userSpaceOnUse" x1="-931.9244" y1="1258.9244" x2="-929.3641" y2="1256.3643" gradientTransform="matrix(-55 0 0 62 -50831.9844 -77722.1406)">
			<stop  offset="0" style="stop-color:#9B9B9B"/>
			<stop  offset="1" style="stop-color:#909090"/>
		</linearGradient>
		<polygon class="st3" points="288,183.4 288,172.6 283.5,172.1 		"/>
		
			<linearGradient id="SVGID_4_" gradientUnits="userSpaceOnUse" x1="-926.8124" y1="1277.1248" x2="-924.2565" y2="1274.5688" gradientTransform="matrix(-42 0 0 41 -38788.9961 -51976.1094)">
			<stop  offset="0" style="stop-color:#A3A3A3"/>
			<stop  offset="1" style="stop-color:#B0B0B0"/>
		</linearGradient>
		<polygon class="st4" points="42,288 31.1,280 31.5,288 		"/>
		
			<linearGradient id="SVGID_5_" gradientUnits="userSpaceOnUse" x1="-923.434" y1="1276.004" x2="-920.8853" y2="1273.4553" gradientTransform="matrix(-32 0 0 41 -29478.9961 -51976.1094)">
			<stop  offset="0" style="stop-color:#B4B4B4"/>
			<stop  offset="1" style="stop-color:#B8B8B8"/>
		</linearGradient>
		<polygon class="st5" points="31.5,288 31.1,280 23.1,288 		"/>
		
			<linearGradient id="SVGID_6_" gradientUnits="userSpaceOnUse" x1="-922.3658" y1="1290.2493" x2="-919.8096" y2="1287.6932" gradientTransform="matrix(-30 0 0 32 -27610.9961 -40962.1094)">
			<stop  offset="0" style="stop-color:#B0B0B0"/>
			<stop  offset="1" style="stop-color:#B4B4B4"/>
		</linearGradient>
		<polygon class="st6" points="23.1,288 31.1,280 20.9,274.8 10.3,288 		"/>
		
			<linearGradient id="SVGID_7_" gradientUnits="userSpaceOnUse" x1="-921.9977" y1="1372.0646" x2="-919.4391" y2="1369.506" gradientTransform="matrix(-19 0 0 13 -17227 -17816.1016)">
			<stop  offset="0" style="stop-color:#EBEBEB"/>
			<stop  offset="1" style="stop-color:#EEEEEE"/>
		</linearGradient>
		<polygon class="st7" points="244.3,0 275.8,25.8 283.5,0.2 282.4,0 		"/>
		
			<linearGradient id="SVGID_8_" gradientUnits="userSpaceOnUse" x1="-927.7424" y1="1299.5925" x2="-925.1936" y2="1297.0437" gradientTransform="matrix(-40 0 0 26 -36880.9961 -33729.1133)">
			<stop  offset="0" style="stop-color:#EEEEEE"/>
			<stop  offset="1" style="stop-color:#E2E2E2"/>
		</linearGradient>
		<polygon class="st8" points="133.5,0 135.6,56.6 223.4,0 		"/>
		
			<linearGradient id="SVGID_9_" gradientUnits="userSpaceOnUse" x1="-923.4712" y1="1290.196" x2="-920.9137" y2="1287.6385" gradientTransform="matrix(-33 0 0 32 -30419.9961 -40962.1094)">
			<stop  offset="0" style="stop-color:#B0B0B0"/>
			<stop  offset="1" style="stop-color:#B8B8B8"/>
		</linearGradient>
		<polygon class="st9" points="10.3,288 20.9,274.8 0,278 0,288 		"/>
		
			<linearGradient id="SVGID_10_" gradientUnits="userSpaceOnUse" x1="-922.827" y1="1307.6935" x2="-920.2648" y2="1305.1313" gradientTransform="matrix(-33 0 0 25 -30419.9961 -32414.1113)">
			<stop  offset="0" style="stop-color:#B6B6B6"/>
			<stop  offset="1" style="stop-color:#C0C0C0"/>
		</linearGradient>
		<polygon class="st10" points="0,278 20.9,274.8 0,228 		"/>
		
			<linearGradient id="SVGID_11_" gradientUnits="userSpaceOnUse" x1="-931.2314" y1="1369.6666" x2="-928.6762" y2="1367.1115" gradientTransform="matrix(-55 0 0 14 -50831.9844 -18978.1016)">
			<stop  offset="0" style="stop-color:#8B8B8B"/>
			<stop  offset="1" style="stop-color:#8C8C8C"/>
		</linearGradient>
		<polygon class="st11" points="288,172.6 288,171.4 283.5,172.1 		"/>
		
			<linearGradient id="SVGID_12_" gradientUnits="userSpaceOnUse" x1="-929.0013" y1="1257.4475" x2="-926.4434" y2="1254.8895" gradientTransform="matrix(-46 0 0 66 -42474.9844 -82613.1406)">
			<stop  offset="0" style="stop-color:#A8A8A8"/>
			<stop  offset="1" style="stop-color:#9B9B9B"/>
		</linearGradient>
		<polygon class="st12" points="229.9,288 158.6,185 161.8,288 		"/>
		
			<linearGradient id="SVGID_13_" gradientUnits="userSpaceOnUse" x1="-928.7088" y1="1293.401" x2="-926.1517" y2="1290.8439" gradientTransform="matrix(-52 0 0 31 -48128.9844 -39736.1055)">
			<stop  offset="0" style="stop-color:#A1A1A1"/>
			<stop  offset="1" style="stop-color:#A5A5A5"/>
		</linearGradient>
		<polygon class="st13" points="46.5,288 31.1,280 42,288 		"/>
		
			<linearGradient id="SVGID_14_" gradientUnits="userSpaceOnUse" x1="-930.2382" y1="1283.4559" x2="-927.6712" y2="1280.8889" gradientTransform="matrix(-49 0 0 35 -45227.9844 -44709.1094)">
			<stop  offset="0" style="stop-color:#909090"/>
			<stop  offset="1" style="stop-color:#939393"/>
		</linearGradient>
		<polygon class="st14" points="288,171.4 288,154.5 283.5,172.1 		"/>
		
			<linearGradient id="SVGID_15_" gradientUnits="userSpaceOnUse" x1="-914.9231" y1="1286.0178" x2="-912.3599" y2="1283.4547" gradientTransform="matrix(-12 0 0 32 -10672.9922 -41069.1094)">
			<stop  offset="0" style="stop-color:#D7D7D7"/>
			<stop  offset="1" style="stop-color:#C0C0C0"/>
		</linearGradient>
		<polygon class="st15" points="288,48.3 288,16.3 283.5,0.2 275.8,25.8 		"/>
		
			<linearGradient id="triangle36_2_" gradientUnits="userSpaceOnUse" x1="-928.1764" y1="1350.6552" x2="-925.6182" y2="1348.0969" gradientTransform="matrix(-46 0 0 16 -42516.9844 -21429.1094)">
			<stop  offset="0" style="stop-color:#959595"/>
			<stop  offset="1" style="stop-color:#A1A1A1"/>
		</linearGradient>
		<polygon id="triangle36_340_" class="st16" points="168.8,167 158.6,185 51.5,143.9 		"/>
		
			<linearGradient id="triangle36_3_" gradientUnits="userSpaceOnUse" x1="-927.9099" y1="1271.6256" x2="-925.3471" y2="1269.063" gradientTransform="matrix(-46 0 0 43 -42516.9844 -54511.1094)">
			<stop  offset="0" style="stop-color:#979797"/>
			<stop  offset="1" style="stop-color:#B2B2B2"/>
		</linearGradient>
		<polygon id="triangle36_339_" class="st17" points="168.8,167 135.6,56.6 51.5,143.9 		"/>
		
			<linearGradient id="triangle36_4_" gradientUnits="userSpaceOnUse" x1="-924.4965" y1="1277.4009" x2="-921.942" y2="1274.8463" gradientTransform="matrix(-33 0 0 38 -30374.9961 -48395.1094)">
			<stop  offset="0" style="stop-color:#D1D1D1"/>
			<stop  offset="1" style="stop-color:#D5D5D5"/>
		</linearGradient>
		<polygon id="triangle36_338_" class="st18" points="135.6,56.6 115.2,46.4 51.5,143.9 		"/>
		
			<linearGradient id="SVGID_16_" gradientUnits="userSpaceOnUse" x1="-927.6589" y1="1313.7546" x2="-925.0946" y2="1311.1904" gradientTransform="matrix(-33 0 0 22 -30307.9961 -28819.1094)">
			<stop  offset="0" style="stop-color:#A3A3A3"/>
			<stop  offset="1" style="stop-color:#D5D5D5"/>
		</linearGradient>
		<polygon class="st19" points="288,78.9 288,48.3 275.8,25.8 222.3,66.9 		"/>
		
			<linearGradient id="SVGID_17_" gradientUnits="userSpaceOnUse" x1="-922.3724" y1="1292.246" x2="-919.8177" y2="1289.6913" gradientTransform="matrix(-21 0 0 29 -19100 -37400.1055)">
			<stop  offset="0" style="stop-color:#E9E9E9"/>
			<stop  offset="1" style="stop-color:#E9E9E9"/>
		</linearGradient>
		<polygon class="st20" points="233.8,0 222.3,66.9 275.8,25.8 244.3,0 		"/>
		
			<linearGradient id="SVGID_18_" gradientUnits="userSpaceOnUse" x1="-927.7397" y1="1291.9471" x2="-925.188" y2="1289.3955" gradientTransform="matrix(-39 0 0 29 -35945.9961 -37400.1055)">
			<stop  offset="0" style="stop-color:#EEEEEE"/>
			<stop  offset="1" style="stop-color:#DBDBDB"/>
		</linearGradient>
		<polygon class="st21" points="223.4,0 135.6,56.6 222.3,66.9 233.8,0 		"/>
		
			<linearGradient id="triangle36_5_" gradientUnits="userSpaceOnUse" x1="-926.7292" y1="1295.3967" x2="-924.1693" y2="1292.8368" gradientTransform="matrix(-34 0 0 28 -31275.9961 -36151.1133)">
			<stop  offset="0" style="stop-color:#B6B6B6"/>
			<stop  offset="1" style="stop-color:#D1D1D1"/>
		</linearGradient>
		<polygon id="triangle36_337_" class="st22" points="189.2,128.5 135.6,56.6 222.3,66.9 		"/>
		
			<linearGradient id="SVGID_19_" gradientUnits="userSpaceOnUse" x1="-917.1345" y1="1289.0232" x2="-914.5731" y2="1286.4619" gradientTransform="matrix(-23 0 0 30 -21070 -38636.1055)">
			<stop  offset="0" style="stop-color:#FFFFFF"/>
			<stop  offset="1" style="stop-color:#FFFFFF"/>
		</linearGradient>
		<polygon class="st23" points="0,28.7 13.3,38.7 17.1,0 0,0 		"/>
		
			<linearGradient id="SVGID_20_" gradientUnits="userSpaceOnUse" x1="-928.5822" y1="1282.4071" x2="-926.0297" y2="1279.8546" gradientTransform="matrix(-38 0 0 35 -34982.9961 -44709.1094)">
			<stop  offset="0" style="stop-color:#939393"/>
			<stop  offset="1" style="stop-color:#8F8F8F"/>
		</linearGradient>
		<polygon class="st24" points="288,96 209.6,154.2 283.5,172.1 288,154.5 		"/>
		
			<linearGradient id="SVGID_21_" gradientUnits="userSpaceOnUse" x1="-928.4596" y1="1283.8861" x2="-925.9047" y2="1281.3312" gradientTransform="matrix(-38 0 0 34 -34982.9961 -43491.1094)">
			<stop  offset="0" style="stop-color:#939393"/>
			<stop  offset="1" style="stop-color:#ACACAC"/>
		</linearGradient>
		<polygon class="st25" points="288,96 288,78.9 222.3,66.9 209.6,154.2 		"/>
		
			<linearGradient id="triangle36_6_" gradientUnits="userSpaceOnUse" x1="-929.4332" y1="1393.2078" x2="-926.8752" y2="1390.6498" gradientTransform="matrix(-49 0 0 12 -45276.9844 -16529.1016)">
			<stop  offset="0" style="stop-color:#8F8F8F"/>
			<stop  offset="1" style="stop-color:#909090"/>
		</linearGradient>
		<polygon id="triangle36_336_" class="st26" points="283.5,172.1 158.6,185 209.6,154.2 		"/>
		
			<linearGradient id="triangle36_7_" gradientUnits="userSpaceOnUse" x1="-912.7551" y1="1283.4922" x2="-910.2006" y2="1280.9377" gradientTransform="matrix(-13 0 0 34 -11640.9922 -43491.1094)">
			<stop  offset="0" style="stop-color:#C0C0C0"/>
			<stop  offset="1" style="stop-color:#979797"/>
		</linearGradient>
		<polygon id="triangle36_335_" class="st27" points="222.3,66.9 189.2,128.5 209.6,154.2 		"/>
		
			<linearGradient id="triangle36_8_" gradientUnits="userSpaceOnUse" x1="-915.9688" y1="1358.8541" x2="-913.4095" y2="1356.295" gradientTransform="matrix(-16 0 0 15 -14450.9922 -20211.1094)">
			<stop  offset="0" style="stop-color:#959595"/>
			<stop  offset="1" style="stop-color:#909090"/>
		</linearGradient>
		<polygon id="triangle36_334_" class="st28" points="189.2,128.5 168.8,167 209.6,154.2 		"/>
		
			<linearGradient id="triangle36_9_" gradientUnits="userSpaceOnUse" x1="-920.0461" y1="1392.8495" x2="-917.4694" y2="1390.2727" gradientTransform="matrix(-20 0 0 12 -18191 -16529.1016)">
			<stop  offset="0" style="stop-color:#979797"/>
			<stop  offset="1" style="stop-color:#939393"/>
		</linearGradient>
		<polygon id="triangle36_332_" class="st29" points="168.8,167 158.6,185 209.6,154.2 		"/>
		
			<linearGradient id="SVGID_22_" gradientUnits="userSpaceOnUse" x1="-930.7493" y1="1302.3029" x2="-928.2029" y2="1299.7563" gradientTransform="matrix(-56 0 0 25 -51765.9531 -32526.1113)">
			<stop  offset="0" style="stop-color:#CFCFCF"/>
			<stop  offset="1" style="stop-color:#D2D2D2"/>
		</linearGradient>
		<polygon class="st30" points="288,0.1 288,0 283.8,0 283.5,0.2 		"/>
		
			<linearGradient id="SVGID_23_" gradientUnits="userSpaceOnUse" x1="-931.8992" y1="1284.2527" x2="-929.3349" y2="1281.6885" gradientTransform="matrix(-56 0 0 33 -51765.9531 -42294.1094)">
			<stop  offset="0" style="stop-color:#939393"/>
			<stop  offset="1" style="stop-color:#D1D1D1"/>
		</linearGradient>
		<polygon class="st31" points="288,16.3 288,0.1 283.5,0.2 		"/>
		
			<linearGradient id="SVGID_24_" gradientUnits="userSpaceOnUse" x1="-920.5762" y1="1353.3041" x2="-918.0167" y2="1350.7445" gradientTransform="matrix(-29 0 0 15 -26683 -20261.1094)">
			<stop  offset="0" style="stop-color:#FAFAFA"/>
			<stop  offset="1" style="stop-color:#E7E7E7"/>
		</linearGradient>
		<polygon class="st32" points="0,34.1 13.3,38.7 0,28.7 		"/>
		
			<linearGradient id="SVGID_25_" gradientUnits="userSpaceOnUse" x1="-924.9974" y1="1285.4841" x2="-922.4436" y2="1282.9303" gradientTransform="matrix(-39 0 0 32 -36032.9961 -41064.1094)">
			<stop  offset="0" style="stop-color:#F3F3F3"/>
			<stop  offset="1" style="stop-color:#E5E5E5"/>
		</linearGradient>
		<polygon class="st33" points="0,46.2 13.3,38.7 0,34.1 		"/>
		
			<linearGradient id="triangle36_10_" gradientUnits="userSpaceOnUse" x1="-924.6844" y1="1277.174" x2="-922.1246" y2="1274.614" gradientTransform="matrix(-34 0 0 38 -31317.9961 -48395.1094)">
			<stop  offset="0" style="stop-color:#E5E5E5"/>
			<stop  offset="1" style="stop-color:#D6D6D6"/>
		</linearGradient>
		<polygon id="triangle36_331_" class="st34" points="115.2,46.4 51.5,143.9 28.6,108 		"/>
		
			<linearGradient id="triangle36_11_" gradientUnits="userSpaceOnUse" x1="-926.1162" y1="1297.8333" x2="-923.5516" y2="1295.2686" gradientTransform="matrix(-40 0 0 27 -36927.9961 -34934.1133)">
			<stop  offset="0" style="stop-color:#E7E7E7"/>
			<stop  offset="1" style="stop-color:#EDEDED"/>
		</linearGradient>
		<polygon id="triangle36_330_" class="st35" points="115.2,46.4 13.3,38.7 28.6,108 		"/>
		
			<linearGradient id="triangle36_12_" gradientUnits="userSpaceOnUse" x1="-890.7016" y1="1336.2012" x2="-888.1445" y2="1333.6442" gradientTransform="matrix(-9 0 0 18 -7967.9922 -23891.1094)">
			<stop  offset="0" style="stop-color:#CBCBCB"/>
			<stop  offset="1" style="stop-color:#DDDDDD"/>
		</linearGradient>
		<polygon id="triangle36_329_" class="st36" points="51.5,143.9 33.7,154.2 28.6,108 		"/>
		
			<linearGradient id="SVGID_26_" gradientUnits="userSpaceOnUse" x1="-924.4104" y1="1335.457" x2="-921.8459" y2="1332.8926" gradientTransform="matrix(-37 0 0 18 -34154.9961 -23891.1094)">
			<stop  offset="0" style="stop-color:#D6D6D6"/>
			<stop  offset="1" style="stop-color:#E2E2E2"/>
		</linearGradient>
		<polygon class="st37" points="0,153.3 33.7,154.2 28.6,108 0,122 		"/>
		
			<linearGradient id="SVGID_27_" gradientUnits="userSpaceOnUse" x1="-926.329" y1="1297.4277" x2="-923.7664" y2="1294.8651" gradientTransform="matrix(-45 0 0 27 -41636.9961 -34934.1133)">
			<stop  offset="0" style="stop-color:#F2F2F2"/>
			<stop  offset="1" style="stop-color:#EBEBEB"/>
		</linearGradient>
		<polygon class="st38" points="0,104.8 28.6,108 13.3,38.7 0,46.2 		"/>
		
			<linearGradient id="SVGID_28_" gradientUnits="userSpaceOnUse" x1="-926.5704" y1="1314.9443" x2="-924.0176" y2="1312.3916" gradientTransform="matrix(-45 0 0 22 -41636.9961 -28792.1094)">
			<stop  offset="0" style="stop-color:#E2E2E2"/>
			<stop  offset="1" style="stop-color:#E6E6E6"/>
		</linearGradient>
		<polygon class="st39" points="0,122 28.6,108 0,104.8 		"/>
		
			<linearGradient id="SVGID_29_" gradientUnits="userSpaceOnUse" x1="-927.549" y1="1257.5005" x2="-924.9939" y2="1254.9453" gradientTransform="matrix(-41 0 0 64 -37843.9961 -80165.1406)">
			<stop  offset="0" style="stop-color:#9D9D9D"/>
			<stop  offset="1" style="stop-color:#999999"/>
		</linearGradient>
		<polygon class="st40" points="161.8,288 158.6,185 59.2,205.5 119.1,288 		"/>
		
			<linearGradient id="SVGID_30_" gradientUnits="userSpaceOnUse" x1="-928.5157" y1="1262.9443" x2="-925.9567" y2="1260.3855" gradientTransform="matrix(-52 0 0 56 -48128.9844 -70365.1016)">
			<stop  offset="0" style="stop-color:#A3A3A3"/>
			<stop  offset="1" style="stop-color:#A5A5A5"/>
		</linearGradient>
		<polygon class="st41" points="119.1,288 59.2,205.5 31.1,280 46.5,288 		"/>
		
			<linearGradient id="triangle36_13_" gradientUnits="userSpaceOnUse" x1="-926.7524" y1="1309.8184" x2="-924.1962" y2="1307.262" gradientTransform="matrix(-42 0 0 24 -38780.9961 -31221.1113)">
			<stop  offset="0" style="stop-color:#979797"/>
			<stop  offset="1" style="stop-color:#A8A8A8"/>
		</linearGradient>
		<polygon id="triangle36_328_" class="st42" points="158.6,185 51.5,143.9 59.2,205.5 		"/>
		
			<linearGradient id="triangle36_14_" gradientUnits="userSpaceOnUse" x1="-896.263" y1="1309.0948" x2="-893.706" y2="1306.5378" gradientTransform="matrix(-10 0 0 24 -8899.9922 -31221.1113)">
			<stop  offset="0" style="stop-color:#B0B0B0"/>
			<stop  offset="1" style="stop-color:#B4B4B4"/>
		</linearGradient>
		<polygon id="triangle36_327_" class="st43" points="51.5,143.9 33.7,154.2 59.2,205.5 		"/>
		
			<linearGradient id="triangle36_15_" gradientUnits="userSpaceOnUse" x1="-908.9932" y1="1296.4028" x2="-906.4397" y2="1293.8492" gradientTransform="matrix(-15 0 0 29 -13574.9922 -37317.1055)">
			<stop  offset="0" style="stop-color:#ACACAC"/>
			<stop  offset="1" style="stop-color:#AAAAAA"/>
		</linearGradient>
		<polygon id="triangle36_323_" class="st44" points="31.1,280 20.9,274.8 59.2,205.5 		"/>
		
			<linearGradient id="SVGID_31_" gradientUnits="userSpaceOnUse" x1="-918.9619" y1="1301.3873" x2="-916.4012" y2="1298.8265" gradientTransform="matrix(-24 0 0 27 -21990 -34869.1133)">
			<stop  offset="0" style="stop-color:#B4B4B4"/>
			<stop  offset="1" style="stop-color:#B8B8B8"/>
		</linearGradient>
		<polygon class="st45" points="0,228 20.9,274.8 59.2,205.5 0,222.9 		"/>
		
			<linearGradient id="SVGID_32_" gradientUnits="userSpaceOnUse" x1="-820.5563" y1="1299.1056" x2="-817.9985" y2="1296.5477" gradientTransform="matrix(-3 0 0 26 -2324.9941 -33729.1133)">
			<stop  offset="0" style="stop-color:#DBDBDB"/>
			<stop  offset="1" style="stop-color:#F0F0F0"/>
		</linearGradient>
		<polygon class="st46" points="128.9,0 135.6,56.6 133.5,0 		"/>
		
			<linearGradient id="SVGID_33_" gradientUnits="userSpaceOnUse" x1="-891.7743" y1="1302.6094" x2="-889.2139" y2="1300.049" gradientTransform="matrix(-8 0 0 25 -6999.9922 -32504.1113)">
			<stop  offset="0" style="stop-color:#D7D7D7"/>
			<stop  offset="1" style="stop-color:#EBEBEB"/>
		</linearGradient>
		<polygon class="st47" points="126.2,0 115.2,46.4 135.6,56.6 128.9,0 		"/>
		
			<linearGradient id="SVGID_34_" gradientUnits="userSpaceOnUse" x1="-927.2408" y1="1316.8839" x2="-924.689" y2="1314.332" gradientTransform="matrix(-45 0 0 21 -41597.9961 -27608.1094)">
			<stop  offset="0" style="stop-color:#EDEDED"/>
			<stop  offset="1" style="stop-color:#F2F2F2"/>
		</linearGradient>
		<polygon class="st48" points="109.3,0 13.3,38.7 115.2,46.4 126.2,0 		"/>
		
			<linearGradient id="SVGID_35_" gradientUnits="userSpaceOnUse" x1="-926.8198" y1="1289.5728" x2="-924.2709" y2="1287.0238" gradientTransform="matrix(-45 0 0 30 -41597.9961 -38636.1055)">
			<stop  offset="0" style="stop-color:#FFFFFF"/>
			<stop  offset="1" style="stop-color:#F4F4F4"/>
		</linearGradient>
		<polygon class="st49" points="17.1,0 13.3,38.7 109.3,0 		"/>
		
			<linearGradient id="triangle36_16_" gradientUnits="userSpaceOnUse" x1="-916.1215" y1="1326.5981" x2="-913.5605" y2="1324.0372" gradientTransform="matrix(-21 0 0 20 -19185 -26321.1094)">
			<stop  offset="0" style="stop-color:#A6A6A6"/>
			<stop  offset="1" style="stop-color:#B9B9B9"/>
		</linearGradient>
		<polygon id="triangle36_322_" class="st50" points="59.2,205.5 33.7,154.2 5.6,202.9 		"/>
		
			<linearGradient id="SVGID_36_" gradientUnits="userSpaceOnUse" x1="-918.6718" y1="1479.7272" x2="-916.1204" y2="1477.1759" gradientTransform="matrix(-24 0 0 8 -21990 -11614.1016)">
			<stop  offset="0" style="stop-color:#A8A8A8"/>
			<stop  offset="1" style="stop-color:#B8B8B8"/>
		</linearGradient>
		<polygon class="st51" points="0,222.9 59.2,205.5 5.6,202.9 0,218.1 		"/>
		
			<linearGradient id="SVGID_37_" gradientUnits="userSpaceOnUse" x1="-924.4414" y1="1325.8361" x2="-921.8759" y2="1323.2706" gradientTransform="matrix(-37 0 0 20 -34154.9961 -26322.1094)">
			<stop  offset="0" style="stop-color:#D6D6D6"/>
			<stop  offset="1" style="stop-color:#CFCFCF"/>
		</linearGradient>
		<polygon class="st52" points="0,198.6 5.6,202.9 33.7,154.2 0,153.3 		"/>
		
			<linearGradient id="SVGID_38_" gradientUnits="userSpaceOnUse" x1="-918.895" y1="1297.5946" x2="-916.3286" y2="1295.0282" gradientTransform="matrix(-26 0 0 28 -23881 -36114.1133)">
			<stop  offset="0" style="stop-color:#CFCFCF"/>
			<stop  offset="1" style="stop-color:#CFCFCF"/>
		</linearGradient>
		<polygon class="st53" points="0,218.1 5.6,202.9 0,198.6 		"/>
	</g>
	<g>
		
			<linearGradient id="SVGID_39_" gradientUnits="userSpaceOnUse" x1="-962.1574" y1="1190.5363" x2="-959.6017" y2="1187.9806" gradientTransform="matrix(24 0 0 -23 23184.0625 27633.1113)">
			<stop  offset="0" style="stop-color:#B6B6B6"/>
			<stop  offset="1" style="stop-color:#B8B8B8"/>
		</linearGradient>
		<polygon class="st54" points="129.6,288 143.4,265.5 82.3,260.4 95.4,288 		"/>
		
			<linearGradient id="SVGID_40_" gradientUnits="userSpaceOnUse" x1="-1069.7135" y1="1171.9733" x2="-1067.1544" y2="1169.4141" gradientTransform="matrix(4 0 0 -14 4563.0547 16571.0938)">
			<stop  offset="0" style="stop-color:#A8A8A8"/>
			<stop  offset="1" style="stop-color:#A6A6A6"/>
		</linearGradient>
		<polygon class="st55" points="288,167.6 283.6,165.4 288,185.9 		"/>
		
			<linearGradient id="SVGID_41_" gradientUnits="userSpaceOnUse" x1="-963.0211" y1="1189.9099" x2="-960.4673" y2="1187.3561" gradientTransform="matrix(20 0 0 -21 19523.0625 25127.1094)">
			<stop  offset="0" style="stop-color:#AAAAAA"/>
			<stop  offset="1" style="stop-color:#A8A8A8"/>
		</linearGradient>
		<polygon class="st56" points="288,161.3 283.6,165.4 288,167.6 		"/>
		
			<linearGradient id="triangle36_17_" gradientUnits="userSpaceOnUse" x1="-953.0479" y1="1166.3531" x2="-950.4916" y2="1163.7969" gradientTransform="matrix(36 0 0 -11 34404.0586 12835.1016)">
			<stop  offset="0" style="stop-color:#A1A1A1"/>
			<stop  offset="1" style="stop-color:#979797"/>
		</linearGradient>
		<polygon id="triangle36_366_" class="st57" points="163.8,8.9 174,37.1 82.3,19.1 		"/>
		
			<linearGradient id="triangle36_18_" gradientUnits="userSpaceOnUse" x1="-956.8154" y1="1209.6304" x2="-954.2567" y2="1207.0717" gradientTransform="matrix(32 0 0 -41 30632.0605 49584.1094)">
			<stop  offset="0" style="stop-color:#888888"/>
			<stop  offset="1" style="stop-color:#9F9F9F"/>
		</linearGradient>
		<polygon id="triangle36_365_" class="st58" points="64.4,111.5 82.3,19.1 0.7,6.3 		"/>
		
			<linearGradient id="SVGID_42_" gradientUnits="userSpaceOnUse" x1="-953.7141" y1="1212.6654" x2="-951.1636" y2="1210.115" gradientTransform="matrix(35 0 0 -50 33494.0586 60560.1016)">
			<stop  offset="0" style="stop-color:#9B9B9B"/>
			<stop  offset="1" style="stop-color:#A6A6A6"/>
		</linearGradient>
		<polygon class="st59" points="162.6,0 163.8,8.9 172.9,0 		"/>
		
			<linearGradient id="SVGID_43_" gradientUnits="userSpaceOnUse" x1="-977.6078" y1="1175.0148" x2="-975.0302" y2="1172.4371" gradientTransform="matrix(13 0 0 -16 12970.0547 19055.1094)">
			<stop  offset="0" style="stop-color:#B2B2B2"/>
			<stop  offset="1" style="stop-color:#B2B2B2"/>
		</linearGradient>
		<polygon class="st60" points="288,263.1 267.9,288 280,288 288,270.8 		"/>
		
			<linearGradient id="SVGID_44_" gradientUnits="userSpaceOnUse" x1="-947.3751" y1="1170.9963" x2="-944.8083" y2="1168.4294" gradientTransform="matrix(47 0 0 -15 44766.0586 17830.1094)">
			<stop  offset="0" style="stop-color:#BCBCBC"/>
			<stop  offset="1" style="stop-color:#ACACAC"/>
		</linearGradient>
		<polygon class="st61" points="288,270.8 280,288 288,288 		"/>
		
			<linearGradient id="SVGID_45_" gradientUnits="userSpaceOnUse" x1="-952.551" y1="1206.7291" x2="-949.9855" y2="1204.1636" gradientTransform="matrix(42 0 0 -41 39942.0586 49672.1094)">
			<stop  offset="0" style="stop-color:#A3A3A3"/>
			<stop  offset="1" style="stop-color:#B0B0B0"/>
		</linearGradient>
		<polygon class="st62" points="0,288 3.4,288 0.7,232.2 0,232.3 		"/>
		
			<linearGradient id="SVGID_46_" gradientUnits="userSpaceOnUse" x1="-957.0849" y1="1205.9983" x2="-954.5317" y2="1203.4451" gradientTransform="matrix(32 0 0 -41 30632.0605 49672.1094)">
			<stop  offset="0" style="stop-color:#B4B4B4"/>
			<stop  offset="1" style="stop-color:#B8B8B8"/>
		</linearGradient>
		<polygon class="st63" points="54.8,288 82.3,260.4 0.7,232.2 3.4,288 		"/>
		
			<linearGradient id="SVGID_47_" gradientUnits="userSpaceOnUse" x1="-957.7769" y1="1200.7568" x2="-955.2274" y2="1198.2073" gradientTransform="matrix(30 0 0 -32 28764.0625 38658.1094)">
			<stop  offset="0" style="stop-color:#B0B0B0"/>
			<stop  offset="1" style="stop-color:#B4B4B4"/>
		</linearGradient>
		<polygon class="st64" points="60,288 82.3,260.4 54.8,288 		"/>
		
			<linearGradient id="SVGID_48_" gradientUnits="userSpaceOnUse" x1="-958.1771" y1="1202.1135" x2="-955.6136" y2="1199.5502" gradientTransform="matrix(24 0 0 -31 23259.0625 37365.1094)">
			<stop  offset="0" style="stop-color:#A1A1A1"/>
			<stop  offset="1" style="stop-color:#9B9B9B"/>
		</linearGradient>
		<polygon class="st65" points="288,93.2 273.4,85.9 283.6,165.4 288,161.3 		"/>
		
			<linearGradient id="SVGID_49_" gradientUnits="userSpaceOnUse" x1="-958.0837" y1="1193.7319" x2="-955.5283" y2="1191.1765" gradientTransform="matrix(24 0 0 -22 23259.0625 26330.1094)">
			<stop  offset="0" style="stop-color:#808080"/>
			<stop  offset="1" style="stop-color:#9F9F9F"/>
		</linearGradient>
		<polygon class="st66" points="288,78.9 273.4,85.9 288,93.2 		"/>
		
			<linearGradient id="SVGID_50_" gradientUnits="userSpaceOnUse" x1="-955.6612" y1="1200.554" x2="-953.0984" y2="1197.9912" gradientTransform="matrix(33 0 0 -32 31573.0605 38658.1094)">
			<stop  offset="0" style="stop-color:#B0B0B0"/>
			<stop  offset="1" style="stop-color:#B8B8B8"/>
		</linearGradient>
		<polygon class="st67" points="89.4,288 82.3,260.4 60,288 		"/>
		
			<linearGradient id="SVGID_51_" gradientUnits="userSpaceOnUse" x1="-995.2155" y1="1195.2343" x2="-992.658" y2="1192.6768" gradientTransform="matrix(11 0 0 -27 11029.0547 32533.1133)">
			<stop  offset="0" style="stop-color:#BCBCBC"/>
			<stop  offset="1" style="stop-color:#B6B6B6"/>
		</linearGradient>
		<polygon class="st68" points="95.4,288 82.3,260.4 89.4,288 		"/>
		
			<linearGradient id="SVGID_52_" gradientUnits="userSpaceOnUse" x1="-957.6037" y1="1196.4117" x2="-955.0499" y2="1193.858" gradientTransform="matrix(32 0 0 -22 30632.0605 26292.1094)">
			<stop  offset="0" style="stop-color:#AEAEAE"/>
			<stop  offset="1" style="stop-color:#9F9F9F"/>
		</linearGradient>
		<polygon class="st69" points="7.3,0 0.7,6.3 82.3,19.1 70.2,0 		"/>
		
			<linearGradient id="SVGID_53_" gradientUnits="userSpaceOnUse" x1="-949.9806" y1="1209.2412" x2="-947.4197" y2="1206.6804" gradientTransform="matrix(50 0 0 -41 47437.0586 49584.1094)">
			<stop  offset="0" style="stop-color:#ACACAC"/>
			<stop  offset="1" style="stop-color:#9F9F9F"/>
		</linearGradient>
		<polygon class="st70" points="0,106.3 64.4,111.5 0.7,6.3 0,7.3 		"/>
		
			<linearGradient id="SVGID_54_" gradientUnits="userSpaceOnUse" x1="-963.871" y1="1202.6556" x2="-961.3042" y2="1200.0889" gradientTransform="matrix(26 0 0 -27 24996.0625 32407.1133)">
			<stop  offset="0" style="stop-color:#FBFBFB"/>
			<stop  offset="1" style="stop-color:#E1E1E1"/>
		</linearGradient>
		<polygon class="st71" points="0,0 0,5.7 0.7,6.3 0.7,0 		"/>
		
			<linearGradient id="SVGID_55_" gradientUnits="userSpaceOnUse" x1="-975.6465" y1="1201.4558" x2="-973.0978" y2="1198.9072" gradientTransform="matrix(18 0 0 -27 17542.0625 32407.1133)">
			<stop  offset="0" style="stop-color:#D2D2D2"/>
			<stop  offset="1" style="stop-color:#CFCFCF"/>
		</linearGradient>
		<polygon class="st72" points="0.7,0 0.7,6.3 7.3,0 		"/>
		
			<linearGradient id="SVGID_56_" gradientUnits="userSpaceOnUse" x1="-952.3983" y1="1211.2303" x2="-949.8316" y2="1208.6637" gradientTransform="matrix(43 0 0 -51 40892.0586 61871.1016)">
			<stop  offset="0" style="stop-color:#B0B0B0"/>
			<stop  offset="1" style="stop-color:#A1A1A1"/>
		</linearGradient>
		<polygon class="st73" points="0,138.2 0,230.8 0.7,232.2 46.6,165.4 		"/>
		
			<linearGradient id="SVGID_57_" gradientUnits="userSpaceOnUse" x1="-949.5642" y1="1197.2383" x2="-947.0027" y2="1194.6768" gradientTransform="matrix(50 0 0 -25 47437.0586 30021.1113)">
			<stop  offset="0" style="stop-color:#AAAAAA"/>
			<stop  offset="1" style="stop-color:#959595"/>
		</linearGradient>
		<polygon class="st74" points="0,106.3 0,138.2 46.6,165.4 64.4,111.5 		"/>
		
			<linearGradient id="triangle36_19_" gradientUnits="userSpaceOnUse" x1="-957.3265" y1="1204.7943" x2="-954.7649" y2="1202.2327" gradientTransform="matrix(32 0 0 -37 30632.0605 44746.1094)">
			<stop  offset="0" style="stop-color:#B4B4B4"/>
			<stop  offset="1" style="stop-color:#ACACAC"/>
		</linearGradient>
		<polygon id="triangle36_364_" class="st75" points="0.7,232.2 82.3,260.4 46.6,165.4 		"/>
		
			<linearGradient id="triangle36_20_" gradientUnits="userSpaceOnUse" x1="-953.3607" y1="1205.541" x2="-950.8027" y2="1202.983" gradientTransform="matrix(38 0 0 -39 36260.0586 47196.1094)">
			<stop  offset="0" style="stop-color:#DDDDDD"/>
			<stop  offset="1" style="stop-color:#C1C1C1"/>
		</linearGradient>
		<polygon id="triangle36_363_" class="st76" points="82.3,260.4 143.4,265.5 46.6,165.4 		"/>
		
			<linearGradient id="triangle36_21_" gradientUnits="userSpaceOnUse" x1="-947.4855" y1="1190.631" x2="-944.9282" y2="1188.0736" gradientTransform="matrix(57 0 0 -21 54025.0586 25125.1094)">
			<stop  offset="0" style="stop-color:#A6A6A6"/>
			<stop  offset="1" style="stop-color:#A6A6A6"/>
		</linearGradient>
		<polygon id="triangle36_362_" class="st77" points="46.6,165.4 64.4,111.5 191.9,152.6 		"/>
		
			<linearGradient id="triangle36_22_" gradientUnits="userSpaceOnUse" x1="-946.5706" y1="1208.6823" x2="-944.0114" y2="1206.1229" gradientTransform="matrix(57 0 0 -44 54025.0586 53316.1094)">
			<stop  offset="0" style="stop-color:#A3A3A3"/>
			<stop  offset="1" style="stop-color:#B4B4B4"/>
		</linearGradient>
		<polygon id="triangle36_321_" class="st78" points="46.6,165.4 143.4,265.5 191.9,152.6 		"/>
		
			<linearGradient id="triangle36_23_" gradientUnits="userSpaceOnUse" x1="-953.6503" y1="1200.215" x2="-951.0995" y2="1197.6642" gradientTransform="matrix(32 0 0 -28 30707.0605 33688.1367)">
			<stop  offset="0" style="stop-color:#878787"/>
			<stop  offset="1" style="stop-color:#909090"/>
		</linearGradient>
		<polygon id="triangle36_320_" class="st79" points="209.7,80.7 273.4,85.9 191.9,152.6 		"/>
		
			<linearGradient id="triangle36_24_" gradientUnits="userSpaceOnUse" x1="-951.4977" y1="1202.5778" x2="-948.9456" y2="1200.0256" gradientTransform="matrix(36 0 0 -31 34447.0586 37365.1094)">
			<stop  offset="0" style="stop-color:#818181"/>
			<stop  offset="1" style="stop-color:#A6A6A6"/>
		</linearGradient>
		<polygon id="triangle36_318_" class="st80" points="273.4,85.9 283.6,165.4 191.9,152.6 		"/>
		
			<linearGradient id="triangle36_25_" gradientUnits="userSpaceOnUse" x1="-951.0856" y1="1199.1456" x2="-948.5269" y2="1196.587" gradientTransform="matrix(36 0 0 -28 34447.0586 33716.1367)">
			<stop  offset="0" style="stop-color:#A5A5A5"/>
			<stop  offset="1" style="stop-color:#ACACAC"/>
		</linearGradient>
		<polygon id="triangle36_317_" class="st81" points="191.9,152.6 283.6,165.4 273.4,224.5 		"/>
		
			<linearGradient id="SVGID_58_" gradientUnits="userSpaceOnUse" x1="-977.7104" y1="1195.838" x2="-975.1512" y2="1193.2787" gradientTransform="matrix(13 0 0 -27 12970.0547 32519.1133)">
			<stop  offset="0" style="stop-color:#B6B6B6"/>
			<stop  offset="1" style="stop-color:#B0B0B0"/>
		</linearGradient>
		<polygon class="st82" points="288,242.4 273.4,224.5 264.1,288 267.9,288 288,263.1 		"/>
		
			<linearGradient id="SVGID_59_" gradientUnits="userSpaceOnUse" x1="-1013.2255" y1="1192.3646" x2="-1010.6639" y2="1189.803" gradientTransform="matrix(7 0 0 -23 7364.0547 27596.1113)">
			<stop  offset="0" style="stop-color:#B2B2B2"/>
			<stop  offset="1" style="stop-color:#B0B0B0"/>
		</linearGradient>
		<polygon class="st83" points="288,185.9 283.6,165.4 273.4,224.5 288,205.6 		"/>
		
			<linearGradient id="SVGID_60_" gradientUnits="userSpaceOnUse" x1="-967.6437" y1="1139.3174" x2="-965.078" y2="1136.7517" gradientTransform="matrix(17 0 0 -9 16714.0547 10460.1016)">
			<stop  offset="0" style="stop-color:#AEAEAE"/>
			<stop  offset="1" style="stop-color:#AEAEAE"/>
		</linearGradient>
		<polygon class="st84" points="288,205.6 273.4,224.5 288,221 		"/>
		
			<linearGradient id="SVGID_61_" gradientUnits="userSpaceOnUse" x1="-967.2501" y1="1173.2393" x2="-964.6904" y2="1170.6797" gradientTransform="matrix(17 0 0 -15 16714.0547 17815.1094)">
			<stop  offset="0" style="stop-color:#ACACAC"/>
			<stop  offset="1" style="stop-color:#AEAEAE"/>
		</linearGradient>
		<polygon class="st85" points="288,221 273.4,224.5 288,242.4 		"/>
		
			<linearGradient id="triangle36_26_" gradientUnits="userSpaceOnUse" x1="-950.649" y1="1206.4449" x2="-948.0928" y2="1203.8887" gradientTransform="matrix(44 0 0 -36 41877.0586 43464.1094)">
			<stop  offset="0" style="stop-color:#848484"/>
			<stop  offset="1" style="stop-color:#878787"/>
		</linearGradient>
		<polygon id="triangle36_312_" class="st86" points="64.4,111.5 82.3,19.1 176.6,70.5 		"/>
		
			<linearGradient id="triangle36_27_" gradientUnits="userSpaceOnUse" x1="-948.2103" y1="1203.7888" x2="-945.6552" y2="1201.2339" gradientTransform="matrix(50 0 0 -32 47487.0586 38584.1094)">
			<stop  offset="0" style="stop-color:#A1A1A1"/>
			<stop  offset="1" style="stop-color:#A1A1A1"/>
		</linearGradient>
		<polygon id="triangle36_311_" class="st87" points="64.4,111.5 191.9,152.6 176.6,70.5 		"/>
		
			<linearGradient id="triangle36_28_" gradientUnits="userSpaceOnUse" x1="-952.4955" y1="1192.6405" x2="-949.9376" y2="1190.0825" gradientTransform="matrix(37 0 0 -20 35339.0586 23864.1094)">
			<stop  offset="0" style="stop-color:#8B8B8B"/>
			<stop  offset="1" style="stop-color:#848484"/>
		</linearGradient>
		<polygon id="triangle36_310_" class="st88" points="82.3,19.1 174,37.1 176.6,70.5 		"/>
		
			<linearGradient id="triangle36_29_" gradientUnits="userSpaceOnUse" x1="-978.733" y1="1185.3795" x2="-976.1751" y2="1182.8215" gradientTransform="matrix(14 0 0 -17 13870.0547 20196.1094)">
			<stop  offset="0" style="stop-color:#848484"/>
			<stop  offset="1" style="stop-color:#848484"/>
		</linearGradient>
		<polygon id="triangle36_301_" class="st89" points="174,37.1 209.7,80.7 176.6,70.5 		"/>
		
			<linearGradient id="triangle36_30_" gradientUnits="userSpaceOnUse" x1="-981.2891" y1="1203.7611" x2="-978.7279" y2="1201.2001" gradientTransform="matrix(13 0 0 -32 12936.0547 38584.1094)">
			<stop  offset="0" style="stop-color:#A3A3A3"/>
			<stop  offset="1" style="stop-color:#8B8B8B"/>
		</linearGradient>
		<polygon id="triangle36_300_" class="st90" points="191.9,152.6 209.7,80.7 176.6,70.5 		"/>
		
			<linearGradient id="SVGID_62_" gradientUnits="userSpaceOnUse" x1="-962.6697" y1="1187.0149" x2="-960.1127" y2="1184.4578" gradientTransform="matrix(23 0 0 -21 22260.0625 25185.1094)">
			<stop  offset="0" style="stop-color:#C0C0C0"/>
			<stop  offset="1" style="stop-color:#BCBCBC"/>
		</linearGradient>
		<polygon class="st91" points="161.6,288 168.9,283.5 143.4,265.5 129.6,288 		"/>
		
			<linearGradient id="SVGID_63_" gradientUnits="userSpaceOnUse" x1="-953.7904" y1="1167.4421" x2="-951.2288" y2="1164.8805" gradientTransform="matrix(33 0 0 -14 31610.0605 16617.0938)">
			<stop  offset="0" style="stop-color:#B6B6B6"/>
			<stop  offset="1" style="stop-color:#B0B0B0"/>
		</linearGradient>
		<polygon class="st92" points="173,288 168.9,283.5 161.6,288 		"/>
		
			<linearGradient id="triangle36_31_" gradientUnits="userSpaceOnUse" x1="-967.7847" y1="1210.6359" x2="-965.2321" y2="1208.0831" gradientTransform="matrix(19 0 0 -51 18533.0625 61891.1016)">
			<stop  offset="0" style="stop-color:#B6B6B6"/>
			<stop  offset="1" style="stop-color:#B8B8B8"/>
		</linearGradient>
		<polygon id="triangle36_298_" class="st93" points="143.4,265.5 191.9,152.6 168.9,283.5 		"/>
		
			<linearGradient id="triangle36_32_" gradientUnits="userSpaceOnUse" x1="-950.2141" y1="1210.2028" x2="-947.6575" y2="1207.6462" gradientTransform="matrix(41 0 0 -51 39113.0586 61891.1016)">
			<stop  offset="0" style="stop-color:#AAAAAA"/>
			<stop  offset="1" style="stop-color:#B0B0B0"/>
		</linearGradient>
		<polygon id="triangle36_297_" class="st94" points="191.9,152.6 273.4,224.5 168.9,283.5 		"/>
		
			<linearGradient id="SVGID_64_" gradientUnits="userSpaceOnUse" x1="-951.3607" y1="1150.8849" x2="-948.8074" y2="1148.3315" gradientTransform="matrix(37 0 0 -11 35373.0586 12942.1016)">
			<stop  offset="0" style="stop-color:#B4B4B4"/>
			<stop  offset="1" style="stop-color:#B4B4B4"/>
		</linearGradient>
		<polygon class="st95" points="210.3,288 168.9,283.5 173,288 		"/>
		
			<linearGradient id="SVGID_65_" gradientUnits="userSpaceOnUse" x1="-949.7604" y1="1196.1831" x2="-947.2097" y2="1193.6324" gradientTransform="matrix(41 0 0 -27 39113.0586 32519.1133)">
			<stop  offset="0" style="stop-color:#B6B6B6"/>
			<stop  offset="1" style="stop-color:#B2B2B2"/>
		</linearGradient>
		<polygon class="st96" points="264.1,288 273.4,224.5 168.9,283.5 210.3,288 		"/>
		
			<linearGradient id="triangle36_33_" gradientUnits="userSpaceOnUse" x1="-960.4077" y1="1171.1693" x2="-957.8435" y2="1168.6051" gradientTransform="matrix(24 0 0 -12 23216.0625 14059.1016)">
			<stop  offset="0" style="stop-color:#909090"/>
			<stop  offset="1" style="stop-color:#8F8F8F"/>
		</linearGradient>
		<polygon id="triangle36_295_" class="st97" points="163.8,8.9 174,37.1 225,6.3 		"/>
		
			<linearGradient id="SVGID_66_" gradientUnits="userSpaceOnUse" x1="-957.5061" y1="1201.8867" x2="-954.9547" y2="1199.3352" gradientTransform="matrix(28 0 0 -27 26956.0625 32408.1133)">
			<stop  offset="0" style="stop-color:#999999"/>
			<stop  offset="1" style="stop-color:#A5A5A5"/>
		</linearGradient>
		<polygon class="st98" points="172.9,0 163.8,8.9 225,6.3 226,0 		"/>
		
			<linearGradient id="triangle36_34_" gradientUnits="userSpaceOnUse" x1="-964.9277" y1="1203.0527" x2="-962.3707" y2="1200.4957" gradientTransform="matrix(20 0 0 -29 19480.0625 34884.1055)">
			<stop  offset="0" style="stop-color:#888888"/>
			<stop  offset="1" style="stop-color:#8F8F8F"/>
		</linearGradient>
		<polygon id="triangle36_294_" class="st99" points="174,37.1 209.7,80.7 225,6.3 		"/>
		
			<linearGradient id="triangle36_35_" gradientUnits="userSpaceOnUse" x1="-958.8211" y1="1203.6757" x2="-956.2622" y2="1201.1168" gradientTransform="matrix(25 0 0 -31 24169.0625 37334.1094)">
			<stop  offset="0" style="stop-color:#878787"/>
			<stop  offset="1" style="stop-color:#878787"/>
		</linearGradient>
		<polygon id="triangle36_293_" class="st100" points="209.7,80.7 273.4,85.9 225,6.3 		"/>
		
			<linearGradient id="SVGID_67_" gradientUnits="userSpaceOnUse" x1="-960.1003" y1="1200.5179" x2="-957.5524" y2="1197.97" gradientTransform="matrix(24 0 0 -26 23240.0625 31183.1133)">
			<stop  offset="0" style="stop-color:#AAAAAA"/>
			<stop  offset="1" style="stop-color:#A1A1A1"/>
		</linearGradient>
		<polygon class="st101" points="226,0 225,6.3 232.1,0 		"/>
		
			<linearGradient id="SVGID_68_" gradientUnits="userSpaceOnUse" x1="-949.5901" y1="1203.9094" x2="-947.0303" y2="1201.3496" gradientTransform="matrix(40 0 0 -31 38200.0586 37334.1094)">
			<stop  offset="0" style="stop-color:#848484"/>
			<stop  offset="1" style="stop-color:#8F8F8F"/>
		</linearGradient>
		<polygon class="st102" points="288,39.6 225,6.3 273.4,85.9 288,78.9 		"/>
		
			<linearGradient id="SVGID_69_" gradientUnits="userSpaceOnUse" x1="-949.5825" y1="1210.1594" x2="-947.0278" y2="1207.6047" gradientTransform="matrix(40 0 0 -42 38200.0586 50788.1094)">
			<stop  offset="0" style="stop-color:#A8A8A8"/>
			<stop  offset="1" style="stop-color:#9B9B9B"/>
		</linearGradient>
		<polygon class="st103" points="232.1,0 225,6.3 288,39.6 288,0 		"/>
		
			<linearGradient id="SVGID_70_" gradientUnits="userSpaceOnUse" x1="-983.7766" y1="1198.1312" x2="-981.2189" y2="1195.5735" gradientTransform="matrix(14 0 0 -23 13820.0547 27516.1113)">
			<stop  offset="0" style="stop-color:#A5A5A5"/>
			<stop  offset="1" style="stop-color:#A1A1A1"/>
		</linearGradient>
		<polygon class="st104" points="70.2,0 82.3,19.1 74,0 		"/>
		
			<linearGradient id="SVGID_71_" gradientUnits="userSpaceOnUse" x1="-951.5045" y1="1197.7009" x2="-948.9527" y2="1195.1492" gradientTransform="matrix(42 0 0 -23 40004.0586 27516.1113)">
			<stop  offset="0" style="stop-color:#979797"/>
			<stop  offset="1" style="stop-color:#A1A1A1"/>
		</linearGradient>
		<polygon class="st105" points="74,0 82.3,19.1 163.8,8.9 144.4,0 		"/>
		
			<linearGradient id="SVGID_72_" gradientUnits="userSpaceOnUse" x1="-951.166" y1="1213.5449" x2="-948.6121" y2="1210.9911" gradientTransform="matrix(42 0 0 -50 40004.0586 60560.1016)">
			<stop  offset="0" style="stop-color:#9D9D9D"/>
			<stop  offset="1" style="stop-color:#A1A1A1"/>
		</linearGradient>
		<polygon class="st106" points="144.4,0 163.8,8.9 162.6,0 		"/>
	</g>
</g>
</svg>
