<?xml version="1.0" encoding="iso-8859-1"?>
<!-- Generator: Adobe Illustrator 16.0.0, SVG Export Plug-In . SVG Version: 6.00 Build 0)  -->
<!DOCTYPE svg PUBLIC "-//W3C//DTD SVG 1.1//EN" "http://www.w3.org/Graphics/SVG/1.1/DTD/svg11.dtd">
<svg version="1.1" id="Capa_1" xmlns="http://www.w3.org/2000/svg" xmlns:xlink="http://www.w3.org/1999/xlink" x="0px" y="0px"
	 width="516.4px" height="516.401px" viewBox="0 0 516.4 516.401" style="enable-background:new 0 0 516.4 516.401;"
	 xml:space="preserve">
<g>
	<g>
		<path d="M353.9,114.65c49.7,0,93.7,30.6,112.8,72.7c17.2-7.6,30.6-24.9,30.6-44c0-24.9-17.199-44-42.1-47.8
			c-7.7-23-28.7-38.2-53.5-38.2c-3.8,0-9.6,0-13.4,1.9c-9.6-13.4-26.8-21-44-21c-32.5,0-57.399,24.9-57.399,57.4c0,0,0,0,0,1.9
			c-3.8,0-9.601,1.9-13.4,3.8c11.5,5.7,21,15.3,30.601,24.9C319.5,118.55,336.7,114.65,353.9,114.65z"/>
		<path d="M244.9,382.451c-7.6-23-28.7-38.2-53.5-38.2c-3.8,0-9.6,0-13.4,1.899c-9.6-13.399-26.8-21-44-21
			c-32.5,0-57.4,24.9-57.4,57.4c0,0,0,0,0,1.9c-21,3.8-38.2,23-38.2,45.899c0,26.8,21,47.8,47.8,47.8h153c26.8,0,47.8-21,47.8-47.8
			C286.9,405.35,269.7,386.25,244.9,382.451z"/>
		<path d="M459.101,237.05c0-57.4-47.801-103.3-105.2-103.3c-21,0-38.2,5.7-55.5,15.3c-24.8-32.5-63.1-53.5-107.1-53.5
			c-74.6,0-133.9,59.3-133.9,133.9c0,1.9,0,5.7,0,7.6C23,252.35,0,284.85,0,325.05c0,26.8,11.5,51.6,28.7,68.9
			c7.7-11.5,17.2-19.101,28.7-24.9c7.7-36.3,38.2-63.1,76.5-63.1c19.1,0,38.2,7.6,51.6,19.1c1.9,0,3.8,0,5.7,0
			c28.7,0,55.5,17.2,68.9,42.1c24.899,7.7,42.1,28.7,45.899,53.5h114.8c53.5,0,95.601-42.1,95.601-95.6
			C516.5,284.85,493.5,252.35,459.101,237.05z"/>
	</g>
</g>
<g>
</g>
<g>
</g>
<g>
</g>
<g>
</g>
<g>
</g>
<g>
</g>
<g>
</g>
<g>
</g>
<g>
</g>
<g>
</g>
<g>
</g>
<g>
</g>
<g>
</g>
<g>
</g>
<g>
</g>
</svg>
