<?xml version="1.0" encoding="utf-8"?>
<!-- Generator: Adobe Illustrator 18.1.1, SVG Export Plug-In . SVG Version: 6.00 Build 0)  -->
<svg version="1.1" xmlns="http://www.w3.org/2000/svg" xmlns:xlink="http://www.w3.org/1999/xlink" x="0px" y="0px"
	 viewBox="0 0 800 800" enable-background="new 0 0 800 800" xml:space="preserve">
<g id="background">
	<g display="none">
		<defs>
			<rect id="SVGID_1_" width="800.3" height="800.3"/>
		</defs>
		<clipPath id="SVGID_2_" display="inline">
			<use xlink:href="#SVGID_1_"  overflow="visible"/>
		</clipPath>
		<g display="inline" clip-path="url(#SVGID_2_)">
			<rect x="-2.7" y="-6.3" fill="#D3EADD" width="807.4" height="807.4"/>
			<g opacity="0.9">
				<defs>
					<filter id="Adobe_OpacityMaskFilter" filterUnits="userSpaceOnUse" x="0" y="0" width="453.4" height="429.3">
						<feFlood  style="flood-color:white;flood-opacity:1" result="back"/>
						<feBlend  in="SourceGraphic" in2="back" mode="normal"/>
					</filter>
				</defs>
				<mask maskUnits="userSpaceOnUse" x="0" y="0" width="453.4" height="429.3" id="SVGID_3_">
					<g filter="url(#Adobe_OpacityMaskFilter)">
						<defs>
							<filter id="Adobe_OpacityMaskFilter_1_" filterUnits="userSpaceOnUse" x="0" y="0" width="453.4" height="429.3">
								<feFlood  style="flood-color:white;flood-opacity:1" result="back"/>
								<feBlend  in="SourceGraphic" in2="back" mode="normal"/>
							</filter>
						</defs>
						<mask maskUnits="userSpaceOnUse" x="0" y="0" width="453.4" height="429.3" id="SVGID_3_">
							<g filter="url(#Adobe_OpacityMaskFilter_1_)">
							</g>
						</mask>
						<linearGradient id="SVGID_4_" gradientUnits="userSpaceOnUse" x1="426.0385" y1="452.2005" x2="27.3443" y2="-22.9446">
							<stop  offset="0.3987" style="stop-color:#000000"/>
							<stop  offset="1" style="stop-color:#333333"/>
						</linearGradient>
						<rect mask="url(#SVGID_3_)" fill-rule="evenodd" clip-rule="evenodd" fill="url(#SVGID_4_)" width="453.4" height="429.3"/>
					</g>
				</mask>
				<g>
					<defs>
						<filter id="Adobe_OpacityMaskFilter_2_" filterUnits="userSpaceOnUse" x="0" y="0" width="453.4" height="429.3">
							<feFlood  style="flood-color:white;flood-opacity:1" result="back"/>
							<feBlend  in="SourceGraphic" in2="back" mode="normal"/>
						</filter>
					</defs>
					<mask maskUnits="userSpaceOnUse" x="0" y="0" width="453.4" height="429.3" id="SVGID_5_">
						<g filter="url(#Adobe_OpacityMaskFilter_2_)">
							<defs>
								<filter id="Adobe_OpacityMaskFilter_3_" filterUnits="userSpaceOnUse" x="0" y="0" width="453.4" height="429.3">
									<feFlood  style="flood-color:white;flood-opacity:1" result="back"/>
									<feBlend  in="SourceGraphic" in2="back" mode="normal"/>
								</filter>
							</defs>
							<mask maskUnits="userSpaceOnUse" x="0" y="0" width="453.4" height="429.3" id="SVGID_5_">
								<g filter="url(#Adobe_OpacityMaskFilter_3_)">
								</g>
							</mask>
							<linearGradient id="SVGID_6_" gradientUnits="userSpaceOnUse" x1="426.0385" y1="452.2005" x2="27.3443" y2="-22.9446">
								<stop  offset="0.4041" style="stop-color:#000000"/>
								<stop  offset="1" style="stop-color:#FFFFFF"/>
							</linearGradient>
							<rect mask="url(#SVGID_5_)" fill-rule="evenodd" clip-rule="evenodd" fill="url(#SVGID_6_)" width="453.4" height="429.3"/>
						</g>
					</mask>
					<linearGradient id="SVGID_7_" gradientUnits="userSpaceOnUse" x1="426.0385" y1="452.2005" x2="27.3443" y2="-22.9446">
						<stop  offset="0.4041" style="stop-color:#FFFFFF"/>
						<stop  offset="1" style="stop-color:#151215"/>
					</linearGradient>
					<rect fill-rule="evenodd" clip-rule="evenodd" fill="url(#SVGID_7_)" width="453.4" height="429.3"/>
				</g>
				<defs>
					<filter id="Adobe_OpacityMaskFilter_4_" filterUnits="userSpaceOnUse" x="353.7" y="-7.9" width="453.4" height="429.3">
						<feFlood  style="flood-color:white;flood-opacity:1" result="back"/>
						<feBlend  in="SourceGraphic" in2="back" mode="normal"/>
					</filter>
				</defs>
				<mask maskUnits="userSpaceOnUse" x="353.7" y="-7.9" width="453.4" height="429.3" id="SVGID_8_">
					<g filter="url(#Adobe_OpacityMaskFilter_4_)">
						<defs>
							<filter id="Adobe_OpacityMaskFilter_5_" filterUnits="userSpaceOnUse" x="353.7" y="-7.9" width="453.4" height="429.3">
								<feFlood  style="flood-color:white;flood-opacity:1" result="back"/>
								<feBlend  in="SourceGraphic" in2="back" mode="normal"/>
							</filter>
						</defs>
						<mask maskUnits="userSpaceOnUse" x="353.7" y="-7.9" width="453.4" height="429.3" id="SVGID_8_">
							<g filter="url(#Adobe_OpacityMaskFilter_5_)">
							</g>
						</mask>
						
							<linearGradient id="SVGID_9_" gradientUnits="userSpaceOnUse" x1="974.058" y1="444.3429" x2="575.3638" y2="-30.8024" gradientTransform="matrix(-1 0 0 1 1355.1211 0)">
							<stop  offset="0.3987" style="stop-color:#000000"/>
							<stop  offset="1" style="stop-color:#333333"/>
						</linearGradient>
						
							<rect x="353.7" y="-7.9" mask="url(#SVGID_8_)" fill-rule="evenodd" clip-rule="evenodd" fill="url(#SVGID_9_)" width="453.4" height="429.3"/>
					</g>
				</mask>
				<g>
					<defs>
						<filter id="Adobe_OpacityMaskFilter_6_" filterUnits="userSpaceOnUse" x="353.7" y="-7.9" width="453.4" height="429.3">
							<feFlood  style="flood-color:white;flood-opacity:1" result="back"/>
							<feBlend  in="SourceGraphic" in2="back" mode="normal"/>
						</filter>
					</defs>
					<mask maskUnits="userSpaceOnUse" x="353.7" y="-7.9" width="453.4" height="429.3" id="SVGID_10_">
						<g filter="url(#Adobe_OpacityMaskFilter_6_)">
							<defs>
								<filter id="Adobe_OpacityMaskFilter_7_" filterUnits="userSpaceOnUse" x="353.7" y="-7.9" width="453.4" height="429.3">
									<feFlood  style="flood-color:white;flood-opacity:1" result="back"/>
									<feBlend  in="SourceGraphic" in2="back" mode="normal"/>
								</filter>
							</defs>
							<mask maskUnits="userSpaceOnUse" x="353.7" y="-7.9" width="453.4" height="429.3" id="SVGID_10_">
								<g filter="url(#Adobe_OpacityMaskFilter_7_)">
								</g>
							</mask>
							
								<linearGradient id="SVGID_11_" gradientUnits="userSpaceOnUse" x1="974.058" y1="444.3429" x2="575.3638" y2="-30.8024" gradientTransform="matrix(-1 0 0 1 1355.1211 0)">
								<stop  offset="0.4041" style="stop-color:#000000"/>
								<stop  offset="1" style="stop-color:#FFFFFF"/>
							</linearGradient>
							
								<rect x="353.7" y="-7.9" mask="url(#SVGID_10_)" fill-rule="evenodd" clip-rule="evenodd" fill="url(#SVGID_11_)" width="453.4" height="429.3"/>
						</g>
					</mask>
					
						<linearGradient id="SVGID_12_" gradientUnits="userSpaceOnUse" x1="974.058" y1="444.3429" x2="575.3638" y2="-30.8024" gradientTransform="matrix(-1 0 0 1 1355.1211 0)">
						<stop  offset="0.4041" style="stop-color:#FFFFFF"/>
						<stop  offset="1" style="stop-color:#151215"/>
					</linearGradient>
					<rect x="353.7" y="-7.9" fill-rule="evenodd" clip-rule="evenodd" fill="url(#SVGID_12_)" width="453.4" height="429.3"/>
				</g>
				<defs>
					<filter id="Adobe_OpacityMaskFilter_8_" filterUnits="userSpaceOnUse" x="-1" y="370" width="453.4" height="429.3">
						<feFlood  style="flood-color:white;flood-opacity:1" result="back"/>
						<feBlend  in="SourceGraphic" in2="back" mode="normal"/>
					</filter>
				</defs>
				<mask maskUnits="userSpaceOnUse" x="-1" y="370" width="453.4" height="429.3" id="SVGID_13_">
					<g filter="url(#Adobe_OpacityMaskFilter_8_)">
						<defs>
							<filter id="Adobe_OpacityMaskFilter_9_" filterUnits="userSpaceOnUse" x="-1" y="370" width="453.4" height="429.3">
								<feFlood  style="flood-color:white;flood-opacity:1" result="back"/>
								<feBlend  in="SourceGraphic" in2="back" mode="normal"/>
							</filter>
						</defs>
						<mask maskUnits="userSpaceOnUse" x="-1" y="370" width="453.4" height="429.3" id="SVGID_13_">
							<g filter="url(#Adobe_OpacityMaskFilter_9_)">
							</g>
						</mask>
						
							<linearGradient id="SVGID_14_" gradientUnits="userSpaceOnUse" x1="425.0342" y1="829.1945" x2="26.3417" y2="354.0512" gradientTransform="matrix(1 0 0 -1 0 1176.2852)">
							<stop  offset="0.3987" style="stop-color:#000000"/>
							<stop  offset="1" style="stop-color:#333333"/>
						</linearGradient>
						
							<rect x="-1" y="370" mask="url(#SVGID_13_)" fill-rule="evenodd" clip-rule="evenodd" fill="url(#SVGID_14_)" width="453.4" height="429.3"/>
					</g>
				</mask>
				<g>
					<defs>
						<filter id="Adobe_OpacityMaskFilter_10_" filterUnits="userSpaceOnUse" x="-1" y="370" width="453.4" height="429.3">
							<feFlood  style="flood-color:white;flood-opacity:1" result="back"/>
							<feBlend  in="SourceGraphic" in2="back" mode="normal"/>
						</filter>
					</defs>
					<mask maskUnits="userSpaceOnUse" x="-1" y="370" width="453.4" height="429.3" id="SVGID_15_">
						<g filter="url(#Adobe_OpacityMaskFilter_10_)">
							<defs>
								<filter id="Adobe_OpacityMaskFilter_11_" filterUnits="userSpaceOnUse" x="-1" y="370" width="453.4" height="429.3">
									<feFlood  style="flood-color:white;flood-opacity:1" result="back"/>
									<feBlend  in="SourceGraphic" in2="back" mode="normal"/>
								</filter>
							</defs>
							<mask maskUnits="userSpaceOnUse" x="-1" y="370" width="453.4" height="429.3" id="SVGID_15_">
								<g filter="url(#Adobe_OpacityMaskFilter_11_)">
								</g>
							</mask>
							
								<linearGradient id="SVGID_16_" gradientUnits="userSpaceOnUse" x1="425.0342" y1="829.1945" x2="26.3417" y2="354.0512" gradientTransform="matrix(1 0 0 -1 0 1176.2852)">
								<stop  offset="0.4041" style="stop-color:#000000"/>
								<stop  offset="1" style="stop-color:#FFFFFF"/>
							</linearGradient>
							
								<rect x="-1" y="370" mask="url(#SVGID_15_)" fill-rule="evenodd" clip-rule="evenodd" fill="url(#SVGID_16_)" width="453.4" height="429.3"/>
						</g>
					</mask>
					
						<linearGradient id="SVGID_17_" gradientUnits="userSpaceOnUse" x1="425.0342" y1="829.1945" x2="26.3417" y2="354.0512" gradientTransform="matrix(1 0 0 -1 0 1176.2852)">
						<stop  offset="0.4041" style="stop-color:#FFFFFF"/>
						<stop  offset="1" style="stop-color:#151215"/>
					</linearGradient>
					<rect x="-1" y="370" fill-rule="evenodd" clip-rule="evenodd" fill="url(#SVGID_17_)" width="453.4" height="429.3"/>
				</g>
				<defs>
					<filter id="Adobe_OpacityMaskFilter_12_" filterUnits="userSpaceOnUse" x="352.7" y="371.6" width="453.4" height="429.3">
						<feFlood  style="flood-color:white;flood-opacity:1" result="back"/>
						<feBlend  in="SourceGraphic" in2="back" mode="normal"/>
					</filter>
				</defs>
				<mask maskUnits="userSpaceOnUse" x="352.7" y="371.6" width="453.4" height="429.3" id="SVGID_18_">
					<g filter="url(#Adobe_OpacityMaskFilter_12_)">
						<defs>
							<filter id="Adobe_OpacityMaskFilter_13_" filterUnits="userSpaceOnUse" x="352.7" y="371.6" width="453.4" height="429.3">
								<feFlood  style="flood-color:white;flood-opacity:1" result="back"/>
								<feBlend  in="SourceGraphic" in2="back" mode="normal"/>
							</filter>
						</defs>
						<mask maskUnits="userSpaceOnUse" x="352.7" y="371.6" width="453.4" height="429.3" id="SVGID_18_">
							<g filter="url(#Adobe_OpacityMaskFilter_13_)">
							</g>
						</mask>
						
							<linearGradient id="SVGID_19_" gradientUnits="userSpaceOnUse" x1="975.061" y1="827.597" x2="576.3672" y2="352.4523" gradientTransform="matrix(-1 0 0 -1 1355.1211 1176.2852)">
							<stop  offset="0.3987" style="stop-color:#000000"/>
							<stop  offset="1" style="stop-color:#333333"/>
						</linearGradient>
						
							<rect x="352.7" y="371.6" mask="url(#SVGID_18_)" fill-rule="evenodd" clip-rule="evenodd" fill="url(#SVGID_19_)" width="453.4" height="429.3"/>
					</g>
				</mask>
				<g>
					<defs>
						<filter id="Adobe_OpacityMaskFilter_14_" filterUnits="userSpaceOnUse" x="352.7" y="371.6" width="453.4" height="429.3">
							<feFlood  style="flood-color:white;flood-opacity:1" result="back"/>
							<feBlend  in="SourceGraphic" in2="back" mode="normal"/>
						</filter>
					</defs>
					<mask maskUnits="userSpaceOnUse" x="352.7" y="371.6" width="453.4" height="429.3" id="SVGID_20_">
						<g filter="url(#Adobe_OpacityMaskFilter_14_)">
							<defs>
								<filter id="Adobe_OpacityMaskFilter_15_" filterUnits="userSpaceOnUse" x="352.7" y="371.6" width="453.4" height="429.3">
									<feFlood  style="flood-color:white;flood-opacity:1" result="back"/>
									<feBlend  in="SourceGraphic" in2="back" mode="normal"/>
								</filter>
							</defs>
							<mask maskUnits="userSpaceOnUse" x="352.7" y="371.6" width="453.4" height="429.3" id="SVGID_20_">
								<g filter="url(#Adobe_OpacityMaskFilter_15_)">
								</g>
							</mask>
							
								<linearGradient id="SVGID_21_" gradientUnits="userSpaceOnUse" x1="975.061" y1="827.597" x2="576.3672" y2="352.4523" gradientTransform="matrix(-1 0 0 -1 1355.1211 1176.2852)">
								<stop  offset="0.4041" style="stop-color:#000000"/>
								<stop  offset="1" style="stop-color:#FFFFFF"/>
							</linearGradient>
							
								<rect x="352.7" y="371.6" mask="url(#SVGID_20_)" fill-rule="evenodd" clip-rule="evenodd" fill="url(#SVGID_21_)" width="453.4" height="429.3"/>
						</g>
					</mask>
					
						<linearGradient id="SVGID_22_" gradientUnits="userSpaceOnUse" x1="975.061" y1="827.597" x2="576.3672" y2="352.4523" gradientTransform="matrix(-1 0 0 -1 1355.1211 1176.2852)">
						<stop  offset="0.4041" style="stop-color:#FFFFFF"/>
						<stop  offset="1" style="stop-color:#151215"/>
					</linearGradient>
					<rect x="352.7" y="371.6" fill-rule="evenodd" clip-rule="evenodd" fill="url(#SVGID_22_)" width="453.4" height="429.3"/>
				</g>
			</g>
		</g>
	</g>
</g>
<g id="object">
	<g>
		<circle fill="#FCBA16" cx="573.3" cy="338.9" r="62.7"/>
		<g opacity="0.4">
			<image overflow="visible" width="608" height="81" xlink:href="CF5C506D.png"  transform="matrix(1 0 0 1 105 562)">
			</image>
		</g>
		<path fill="#E1E2E2" d="M273.7,504.5l-142,103c0,0,37.1-9.3,79.6-7.7c42.4,1.6,86.4,7.7,86.4,7.7l61.5-103H273.7z"/>
		<path fill="#EEEFEF" d="M359.2,504.5l-61.5,103c0,0,33.8-6,65.7-6s56.6,6,56.6,6v-103H359.2z"/>
		<path fill="#E1E2E2" d="M420,504.5v103c0,0,29.3-6.5,58.5-6.5s52.5,6.5,52.5,6.5l-52.5-103H420z"/>
		<path fill="#EEEFEF" d="M553.1,504.5h-74.6l52.5,103c32.7-5.5,32.6-6.5,70.2-6.5c37.6,0,82.5,6.5,82.5,6.5L553.1,504.5z"/>
		<linearGradient id="SVGID_23_" gradientUnits="userSpaceOnUse" x1="204.3325" y1="519.1338" x2="310.921" y2="588.3531">
			<stop  offset="0" style="stop-color:#7FB8BE"/>
			<stop  offset="2.653174e-002" style="stop-color:#81BBC1"/>
			<stop  offset="0.1667" style="stop-color:#8BC9D0"/>
			<stop  offset="0.9032" style="stop-color:#8BC9D0"/>
			<stop  offset="1" style="stop-color:#7FB8BE"/>
		</linearGradient>
		<path fill="url(#SVGID_23_)" d="M276.8,506.3l-123.9,92.2c0,0,19.2-5,58.7-5.5s91.2,8,91.2,8l55.5-94.7H276.8z"/>
		<linearGradient id="SVGID_24_" gradientUnits="userSpaceOnUse" x1="297.5085" y1="562.6281" x2="424.5219" y2="549.2784">
			<stop  offset="0" style="stop-color:#83B7BD"/>
			<stop  offset="0.1235" style="stop-color:#8EC8CE"/>
			<stop  offset="0.2581" style="stop-color:#98D6DD"/>
			<stop  offset="0.7957" style="stop-color:#98D6DD"/>
			<stop  offset="1" style="stop-color:#83B7BD"/>
		</linearGradient>
		<path fill="url(#SVGID_24_)" d="M358.2,506.3L301.5,601c0,0,23.8-6,64.2-6c40.4,0,54.3,4.8,54.3,4.8v-93.5H358.2z"/>
		<linearGradient id="SVGID_25_" gradientUnits="userSpaceOnUse" x1="417.737" y1="556.5686" x2="525.0729" y2="550.9434">
			<stop  offset="0" style="stop-color:#7FB8BE"/>
			<stop  offset="0.1344" style="stop-color:#8BC9D0"/>
			<stop  offset="0.9032" style="stop-color:#8BC9D0"/>
			<stop  offset="1" style="stop-color:#7FB8BE"/>
		</linearGradient>
		<path fill="url(#SVGID_25_)" d="M420,506.3v93.5c0,0,26.6-4.8,56.4-4.8c29.8,0,51.3,6,51.3,6l-48.3-94.7H420z"/>
		<linearGradient id="SVGID_26_" gradientUnits="userSpaceOnUse" x1="522.5549" y1="594.6509" x2="608.2515" y2="525.2552">
			<stop  offset="0" style="stop-color:#83B7BD"/>
			<stop  offset="0.1235" style="stop-color:#8EC8CE"/>
			<stop  offset="0.2581" style="stop-color:#98D6DD"/>
			<stop  offset="0.7957" style="stop-color:#98D6DD"/>
			<stop  offset="1" style="stop-color:#83B7BD"/>
		</linearGradient>
		<path fill="url(#SVGID_26_)" d="M549.9,506.3h-70.5l48.3,94.7c0,0,31.1-5.8,67.1-5.8s73.8,4.5,73.8,4.5L549.9,506.3z"/>
		<polygon fill="#9DBF71" points="516.9,565.8 519,566.1 519.2,566.4 516.8,566.4 517.9,567.2 534.1,567.5 527.7,566.2 521.3,566.2 
			520,564.8 521.2,565 523.6,564.9 522.4,563.6 515.5,563.6 512.9,562.6 512.6,562.1 507,560.4 508.1,562.5 		"/>
		<polygon fill="#9DBF71" points="500.2,559.5 508.1,562.5 507,560.4 501.8,558.8 		"/>
		<polygon fill="#9DBF71" points="526.5,564.9 534.1,564.9 534.2,563.9 535.4,563.3 535,562.8 535.8,562.6 532.8,559.1 531.6,558.9 
			530.2,557.8 528.7,557.8 528.6,558.9 527.9,559.4 520.7,561.3 522.2,563.3 		"/>
		<polygon fill="#9DBF71" points="539.1,566.3 541.4,566.3 539.6,564.6 541.7,564.9 542.7,566.1 544.6,566 541.4,562.6 537.5,563.3 
			537.9,563.7 536.8,563.7 		"/>
		<polygon fill="#9DBF71" points="594.1,576.1 587.2,574.4 583.2,571.4 577.6,569.2 574.7,569.2 577.8,573 572,572.9 570.1,572.5 
			568.3,571 571.4,571.2 572.9,570.3 566.4,569 560.3,569 558.3,571.5 556.5,571.5 555.7,570.7 550.6,570.9 545.4,574.6 
			540.9,574.6 536.8,576 541.1,581.7 538.7,582.9 539.5,583.9 553.6,581.9 566.1,581.8 574.4,585.5 589.3,585.7 597.9,581 
			598,578.2 		"/>
		<polygon fill="#9DBF71" points="579.2,588.3 584.7,588.5 588.1,587.7 587,586.6 582.2,586.4 		"/>
		<polygon fill="#9DBF71" points="623.3,583.3 621.4,583.4 619.1,581.7 615.3,581.8 618.3,584.5 615.9,585.3 609.8,585.6 
			602.4,588.2 601.2,588.7 602.2,589.6 607.4,589.3 617.3,586.5 619.9,585.6 623.1,585 626,584.2 		"/>
		<polygon fill="#9DBF71" points="584.2,567.9 581.8,567.9 578.6,565.4 565.1,563.4 562.7,564 559.9,564.1 558.8,562.9 555.4,562.2 
			553.1,563.8 557.1,565.1 563.2,565.4 567.1,566.1 567.9,566.8 565.8,566.8 567.3,568.1 574.2,567.9 575.5,566.8 578.1,566.7 
			580.4,568.7 585.2,568.7 		"/>
		<polygon fill="#90B264" points="479,556.9 477.4,558.2 479,559.4 482.5,558.8 482.1,557.2 		"/>
		<polygon fill="#9DBF71" points="435.1,572.1 429.4,571.9 429.6,573.6 431.7,574.5 430.2,575.4 427.9,576.4 428,578.3 431.4,579.4 
			434.2,577.7 439.5,574.5 441.4,569.6 438,569.6 		"/>
		<polygon fill="#9DBF71" points="546.7,567.5 546.5,566.9 544.8,566.9 545.1,567.3 		"/>
		<polygon fill="#9DBF71" points="539.4,568 539,567.5 536.9,567.5 537.3,568 		"/>
		<polygon fill="#9DBF71" points="542.8,568.3 542.5,568 543.8,568 543.5,567.6 544.4,567.5 544,567.1 541.9,567.1 541.4,567.5 
			540.5,568 540.9,568.4 		"/>
		<polygon fill="#9DBF71" points="548.6,568.7 548.3,568.3 550.4,568.3 550,567.9 551.6,568 550.7,567.2 548.4,567.4 548.6,567.9 
			546,568 545.9,568 546.6,568.7 		"/>
		<path fill="#9DBF71" d="M273.7,530.5l-1.9-0.2c-0.1,0.1-1.7,1.3-1.5,1.3c0.2,0,1.5,0,1.5,0L273.7,530.5z"/>
		<polygon fill="#9DBF71" points="379.3,530.6 379.2,531.3 377.3,531.5 376.4,532.9 378.7,532.9 381.9,532.8 383.8,531.8 
			382.3,531.4 381.5,530.8 380.6,529.7 380.6,528 378,528.2 377,528.8 376.8,529.5 377.8,530 		"/>
		<polygon fill="#9DBF71" points="376.9,531.1 377.4,530.2 376.1,529.9 373.9,530.1 371.7,531.5 371.3,532.4 373.2,532.4 		"/>
		<polygon fill="#9DBF71" points="421.4,574 426.5,571.3 425.2,567.1 422.9,565.6 432.3,561.8 441.6,555.6 439.6,555.2 429.4,556.1 
			426.6,555.6 420,550 420,574.7 		"/>
		<polygon fill="#9DBF71" points="504.1,554.3 510.8,556.8 513.6,556.9 516.5,555.8 514.7,554.3 507.2,552.2 505.7,550.3 
			506.6,549.3 509.7,549.7 510.2,550.6 512.7,551.7 513.9,551.3 512,549.9 519,548.6 521.3,547.2 518.7,544.8 509.2,541.4 
			506.9,538.7 509.7,538.7 521.6,542 523.9,541.7 521.2,540.6 515.1,539.2 513.5,537 519,537 517,534.4 513.7,533 514.2,532.3 
			518.1,533.6 518.4,533.1 513.2,531.1 504.7,530.5 502.6,529.4 503.4,527.6 505.8,528.3 511.5,528.6 515.8,526 517.8,526.8 
			517.6,528.2 518.9,529.5 528.2,532.3 529.7,531.7 526.9,529.8 520,527.5 525.6,527.3 524.6,526.4 527,526 524,525.2 523.4,524.6 
			529.8,525.1 530.2,524.6 520.4,522.7 491.9,521.8 488.7,521 486.9,520.9 504.2,554.9 		"/>
		<polygon fill="#9DBF71" points="518,562.7 518,561.8 504.9,556.3 506.3,559 		"/>
		<path fill="#90B264" d="M504.9,556.3l-0.6-0.2l-0.1-1.1l-17.3-34l-2.5-0.2l-3.1-0.1l-1.7,1.7l-1.2-0.1l-4.7-1.6h-10.8l-5.8-1.8
			l-9.7,0.4l-7,2l0.6,2.4l-2.3,0.4l-1-2.4l-1.1-0.8l-2.7-0.4l-0.4,1.4l1,1.2l-9.7-0.4l-4.5,1.2l-0.2-0.4v24.5l7,3.9l0.4,1.8l2.6,1.1
			l5-0.1l9.8-3.4l3-0.9l-0.3-1.2l-3.4-0.2c0,0-12.1-2.6-12.1-2.7c0-0.1-0.2-2.2-0.2-2.2h2.5l0.6,1.5l5.6,1.4l6.2,0.1l13.7,1l3.5,0.9
			l0.5,1.4l0.3,1.9l9.4,5.2l2.5,0.2l1.7-1.5l-0.7-4.2l1.2-2.3l3.4-0.6l6.8,0.3l10.5,3.4l3.2,4.9l3.6,1.1L504.9,556.3z M436.3,540.9
			l-2.3-0.1l-0.5-0.3l-3.5-0.1l0.2-0.6l1.7-0.8l-0.1-0.7l-3.6-1.3l-0.3-1.6l0.6-0.8l2.7-0.1l2.4,0.5l0.2,0.8l-3.4-0.1l-0.1,0.8
			l4.4,1.4l0.2,1.1l2,0.7l0.1,0.7L436.3,540.9z"/>
		<path fill="#9DBF71" d="M419.5,522.7l-1.1,0.2l-0.8,1.3l-2.5,1.1l-6-0.1l-0.2-0.8l6.2-0.2l1.3-0.6l-7.3-2l-8.9,0.2l-5.4,1.5
			l-2.4,2l-3.6,0.8L387,527l0,1l1.8,0.1l0.7,1.5l3.3-0.7l0,2h-1l-2.6-0.2l-3,0.3l-3.6,2.2l-4.3,0.3l-1.3,1.9l1.7,0.2l-1,1.2
			l-4.1-0.4l-4.1,0.4l-1.3,1.1l-0.3,2.3l2.1,0.5l4,0l2.7-0.1l1.2-1.1l5-2.7l2.6,0.3l3-1.2l0.2,1l6,2.2l-0.9,0.5l-3-0.1l1,0.8
			l1.8,0.2l2.3-0.4l0.2-1.3l1-0.2l-0.7-0.4l-4.1-1.2l-0.7-1.6h3.5l1,0.6l2.8,1.4l-0.1,1.6l3,1.7l1.5-2.4l2.3-0.6l0.2,2l2.1,1.2
			l6.8-0.1l2,0.7l0,1.7l-2.5,1.1h-7.1l-4.1-1.5l-4.5,0.2l-0.2,1.3h-1.4l-1.4-0.5l-7.6-1l0.6-2.4l-9.7,0.4l-3.3,0.8h-3.9l-1.9-0.1
			l-5.3,1.3l-1.1,2.4l-11.7,3.4l0.1,1.4h2.1l-1.3,1.4l-1.6,0.2l-2,3.6l7.1,4.6h4.2l0.4-0.3h7.5l2.5-0.8h4.2l2,1l6.3,0.3l-1.8,3.6
			l6.1,5.2l-4.7,3l-0.1,1.4l3,1.2l-0.7,3.4l3.9,2.2l-0.5,2.8h13.3l10.1-3.7l3.1-2l3.9-0.3l0-1.7l1.1-0.5V550l-4.1-3.4l0.7-0.4
			l3.4,1.9v-24.5L419.5,522.7z M405,524.5l-3.9,1.3l-0.1,0.8l2,0.6l0,1.1l-3.5,2.5l-5.4,0l-0.2-0.6l3.5-0.9l0.7-3.4l5.7-2.2h1.2
			L405,524.5z M415.9,539.1l-5.5-0.1l-1.6,0.1l0.2-1.9l1.3-0.7l1.3-0.2l2.8-0.2l0.6-0.5l1.1,0.3l0.1,1.7l3.1,0.7l0.3,0.8H415.9z"/>
		<path fill="#9DBF71" d="M326.8,536.6l1.5-0.1l1.1-0.3l0.7-0.6l1.2-0.1l0.9-0.5l-1-0.1l-0.9,0l-1,0.6h-2.4l-0.5,0.6h0.6
			C327,536.3,326.9,536.4,326.8,536.6z"/>
		<polygon fill="#9DBF71" points="325.1,536.1 324.5,535.7 323.3,536.2 322.6,536.8 324.4,536.7 		"/>
		<polygon fill="#9DBF71" points="319.9,575.1 324.7,570 330.7,567.7 332.5,566.2 328.7,565.7 327.2,563.9 323.7,563.8 317.4,575.1 
					"/>
		<path fill="#90B264" d="M311.8,562.7l1.3-2.1l-1-1.7l-6.3,0l-1.5-2.4l-2.6-0.7l-0.8,0.7l-5.9,0.1l-0.9-1.3l-5.4-0.5l-7.5,2.5
			l-7.2-0.6l3.7-3.8l-5-0.4l4.3-1.9l0.6-1.1l-9.7,2.2l-4.2-0.2l0.4-1.6l3-1.6l5-2.1l7-1.3l10.5,0l-1.7,1.5l2.9,0.8l2.5-2.6l4.1-1.3
			l7.1-1.7l1.6-1.2l7.8-2.7l6.8-1.5l-0.3-0.2l5.2-1.8l1.2,0.2l0.3,0.4l2-0.8l0.4-0.1l-1.4-0.1l-1.3-0.3l0.7-0.8l1.1-0.3h1.7l0.6,0.2
			l0.1,0.7l0.9-0.1l0.1-0.1l0.2,0l2.6-0.2l0.8-0.6l1.2,0.2l-0.5,0.7l-1.7,0.5h0l-0.4,0.8l4,0.7c0,0,0,0,0,0l1.1,0l0.8-1l-2.9-0.8
			l0.2-0.5l3.3-0.5l1.2-1.5l-2.2-1l1.7-2.5l-4.8,1.1h-1.5l1.9-1.9l-4.7-0.7l-3,0.9l-2.6,2.9l-4.8,0.7l-3.4,1.9l-2,0.2l2.3-2.4
			l-3.6-0.3l-1.2-0.7l0.8-1.6l8.9-2.2l3.8-0.6l-0.8,1.2l1.9-0.1l0.7-0.6l2-0.2l0.2-0.2l-0.6-0.2l0.4-0.7l2.4-0.1l2.1-0.8l0.1-0.1
			l0,0l0.6-0.3l5-0.4l1.3,1l-7,1.7l6.4,1l2-1.4h3.1l0.6-0.4l0.5-1l-1.1-0.2l1.1-1.5l-5.3-1.8l-4.8,0.3l-3.3,0.8l-1.6,2l-2.5-0.2
			l0.6-1.1l3.9-1.4l-4.5-0.1l-1.6,0.2l-1.5,1l1.6,0.2l-1.4,1.1l-3.2,0.1l-1.2,0.7l-4.5,0.1c0,0,1.4-1.5,1.2-1.5c-0.2,0,3.5,0,3.5,0
			l4.1-1.5l-1-0.4l-3,1.1l-3-0.1l-0.2-1.6h-3.9l-6.3,1.9h3.8l-0.4,0.7l-1.6,0.6l4.2,0.1l-0.3,0.9l-4.8-0.1l0.5-0.7l-2.6-0.4l-1-0.5
			l-7.2,0l-3.8,1.3l-1.4-0.1l-1-0.6l-3.8-0.9h-9l-8.4,2.1l-4.1,0.3l-2.8,0.7l2.2,0.2l-0.9,0.6h-5.6l-3.6,0.9l0.7,1.3l7.7,0l2-0.6
			h6.5l0.7,1.2l-2.6,1.8l0.6,1l-2.6,0.7l-2.9,2.4l-12,4l-5.4,3.7l2.4,0.8l-4.8,3.3l-0.4,2.9l2.7,0.2l1.7-1l0-2.5l2.7-2.4h2l-2.6,2.5
			l0.4,3.4l-2.8,1.1l0.3,2.3l7.1,0.9l0.7-0.6l3.1,0.2l-1.6,1.1l2.4,0.2l3.5,0.5l2.5,2.9l7.3,0.2l-2.1,2.6l-7,1.6l-2.9,2.4l-2.4,1.4
			l3.7,4l-0.8,1.4c0,0,2.7,0.3,3,0.3c0.4,0,4.9,1.9,4.9,1.9l-7.1,7.2l2.2,0.2l-4.9,3.3l2.3,2l-3.9,3.3l2.5,3.4l1.5,2.2l7.5,0
			l1.4-0.8l-0.2-1.6l1-0.8l1.8-0.9l1-1l-3.6,0l-1.1-0.8l3.9-1l1.1-0.8l-3-0.3l0.8-0.7l4.9-0.3l8.1-1.2l3.6-1.5l9.9-3.4l0.3-2.6
			l3.2-1.4l6.4,0.1l2.6-1.3l6.3-11.3l-5.5,0L311.8,562.7z M306.7,537.9l-1.8,0.6h-2.7l1.4-0.9l1.3-0.1l0.6-0.3l2-0.1L306.7,537.9z
			 M305.7,536.8c0,0,1.3-1.3,1.4-1.4h2.8l-0.8,0.8l-1.7,0.4L305.7,536.8z M311.7,537.6H309l-0.2-0.5l0.8-0.8h0.2l2.7,0.5
			L311.7,537.6z M312.3,535.3l0.9,0.4l-1.4,0.4l-0.6-0.4L312.3,535.3z M309.9,534l0.9,0.8l-1.9,0.2L309.9,534z M308.7,533.7
			l-0.5,0.5h0.7L308,535h-4.9l-1.5-0.3l1.1-0.6l2.9-0.5H308.7z M300.9,532.4l0.3-1.4l2.6-0.5l1.6,0.2l-2.1,1.3L300.9,532.4z
			 M302.3,524.1L302.3,524.1l1.7-0.1l0.5-0.3h2.6l-0.8,0.7l-1.4,0.6h-3.6L302.3,524.1z M302.4,526.2c0,0,1.8-0.2,2-0.2
			s-1.1,0.9-1.1,0.9l-3.9,0.1l-0.1-0.5L302.4,526.2z M299.8,536.4l3-1.1h2.7l-6.2,2.5l-1-0.4L299.8,536.4z"/>
		<polygon fill="#9DBF71" points="349.4,523.7 348.1,523.4 347,524.9 347.6,524.9 		"/>
		<g>
			<circle fill="#EEEFEF" cx="246.3" cy="412.5" r="41.9"/>
			<path fill="#EEEFEF" d="M361.4,440.2c0,23.1-18.8,13.1-41.9,13.1c-23.1,0-41.9,10-41.9-13.1c0-23.1,18.8-41.9,41.9-41.9
				C342.7,398.3,361.4,417,361.4,440.2z"/>
			<circle fill="#EEEFEF" cx="381.1" cy="441.4" r="26"/>
			<path fill="#FFFFFF" d="M221,465.5c-44.6,0-27.8,0-86.8,0c0-24,19.4-43.4,43.4-43.4C201.6,422.1,221,441.5,221,465.5z"/>
			<circle fill="#FFFFFF" cx="221" cy="422.1" r="43.4"/>
			<circle fill="#FFFFFF" cx="275.1" cy="431.9" r="33.6"/>
			<path fill="#FFFFFF" d="M360.9,451.2c0,18.6-67.2,18.6-67.2,0c0-18.6,15-33.6,33.6-33.6C345.8,417.6,360.9,432.6,360.9,451.2z"/>
			<path fill="#FFFFFF" d="M414.7,465.5c-35.6,0-22.5,0-67.2,0c0-18.6,15-33.6,33.6-33.6C399.6,431.9,414.7,446.9,414.7,465.5z"/>
			<polygon fill="#FFFFFF" points="414.7,465.5 264.5,441.4 134.4,461 134,470.6 414.7,470.8 			"/>
		</g>
		<g>
			<circle fill="#EEEFEF" cx="326.5" cy="244.7" r="25"/>
			<circle fill="#EEEFEF" cx="363.7" cy="271.4" r="15.5"/>
			<circle fill="#EEEFEF" cx="264.5" cy="239.7" r="15.5"/>
			<path fill="#FFFFFF" d="M272.8,292.7c-26.6,0-16.6,0-51.7,0c0-14.3,11.6-25.9,25.9-25.9C261.3,266.8,272.8,278.4,272.8,292.7z"/>
			<circle fill="#FFFFFF" cx="286.1" cy="245.6" r="25.9"/>
			<circle fill="#FFFFFF" cx="341.5" cy="266.8" r="25.9"/>
			<circle fill="#FFFFFF" cx="250.6" cy="259.7" r="20"/>
			<path fill="#FFFFFF" d="M335.7,259.7c0,11.1-40,11.1-40,0c0-11.1,9-20,20-20C326.7,239.7,335.7,248.7,335.7,259.7z"/>
			<path fill="#FFFFFF" d="M328.3,278.5c0,11.1-79.9,11.1-79.9,0c0-11.1,17.9-20,40-20C310.5,258.5,328.3,267.5,328.3,278.5z"/>
			<path fill="#FFFFFF" d="M388.2,292.7c-21.2,0-13.4,0-40,0c0-11.1,9-20,20-20C379.3,272.7,388.2,281.6,388.2,292.7z"/>
			<polygon fill="#FFFFFF" points="388.1,290.5 298.7,278.3 221.2,290 221,295.7 388.6,295.8 			"/>
		</g>
		<g>
			<circle fill="#EEEFEF" cx="529.9" cy="197.9" r="17.4"/>
			<circle fill="#EEEFEF" cx="555.7" cy="216.5" r="10.8"/>
			<circle fill="#EEEFEF" cx="486.8" cy="194.4" r="10.8"/>
			<path fill="#FFFFFF" d="M492.5,231.3c-18.5,0-11.5,0-36,0c0-9.9,8.1-18,18-18S492.5,221.4,492.5,231.3z"/>
			<circle fill="#FFFFFF" cx="501.7" cy="198.5" r="18"/>
			<circle fill="#FFFFFF" cx="540.3" cy="213.3" r="18"/>
			<circle fill="#FFFFFF" cx="477" cy="208.4" r="13.9"/>
			<path fill="#FFFFFF" d="M536.2,208.4c0,7.7-27.9,7.7-27.9,0s6.2-13.9,13.9-13.9C530,194.4,536.2,200.7,536.2,208.4z"/>
			<path fill="#FFFFFF" d="M531.1,221.4c0,7.7-55.6,7.7-55.6,0c0-7.7,12.4-13.9,27.8-13.9S531.1,213.8,531.1,221.4z"/>
			<path fill="#FFFFFF" d="M572.8,231.3c-14.8,0-9.3,0-27.9,0c0-7.7,6.2-13.9,13.9-13.9S572.8,223.6,572.8,231.3z"/>
			<polygon fill="#FFFFFF" points="572.7,229.8 510.5,221.3 456.6,229.4 456.4,233.4 573,233.5 			"/>
		</g>
		<g>
			<circle fill="#EEEFEF" cx="510.2" cy="353.3" r="30.9"/>
			<circle fill="#EEEFEF" cx="563.7" cy="372.9" r="30.9"/>
			<circle fill="#EEEFEF" cx="623" cy="388.5" r="30.9"/>
			<circle fill="#EEEFEF" cx="381.1" cy="360.9" r="26.6"/>
			<circle fill="#EEEFEF" cx="450.8" cy="356.4" r="16.5"/>
			<circle fill="#EEEFEF" cx="467.2" cy="342" r="16.5"/>
			<path fill="#FFFFFF" d="M387.3,417.4c-28.3,0-17.7,0-55.1,0c0-15.2,12.3-27.6,27.6-27.6C375,389.8,387.3,402.2,387.3,417.4z"/>
			<path fill="#FFFFFF" d="M671.1,420.7c-45.3,0-28.3-2.6-88.2-2.6c0-24.4,19.7-44.1,44.1-44.1C651.4,374,671.1,396.3,671.1,420.7z"
				/>
			<circle fill="#FFFFFF" cx="409.6" cy="367.2" r="34.8"/>
			<ellipse fill="#FFFFFF" cx="524.4" cy="391.2" rx="78" ry="21.7"/>
			<circle fill="#FFFFFF" cx="587.5" cy="388.5" r="27.6"/>
			<circle fill="#FFFFFF" cx="359.8" cy="385.4" r="21.3"/>
			<circle fill="#FFFFFF" cx="537.6" cy="374" r="30.9"/>
			<circle fill="#FFFFFF" cx="446.5" cy="389.8" r="21.3"/>
			<circle fill="#FFFFFF" cx="495.5" cy="352.2" r="28.3"/>
			<path fill="#FFFFFF" d="M478.3,370.8c0,12.8-46.4,12.8-46.4,0s10.4-23.2,23.2-23.2C467.9,347.6,478.3,358,478.3,370.8z"/>
			<path fill="#FFFFFF" d="M479.6,380.2c0,11.8-42.7,11.8-42.7,0c0-11.8,9.5-21.3,21.3-21.3C470.1,358.9,479.6,368.5,479.6,380.2z"
				/>
			<path fill="#FFFFFF" d="M446.5,402.3c0,11.8-85.1,11.8-85.1,0c0-11.8,19.1-21.3,42.6-21.3C427.4,381,446.5,390.5,446.5,402.3z"/>
			<path fill="#FFFFFF" d="M510.2,417.4c-22.6,0-14.3,0-42.7,0c0-11.8,9.5-21.3,21.3-21.3C500.7,396,510.2,405.6,510.2,417.4z"/>
			<polygon fill="#FFFFFF" points="670.2,415.1 489.3,402.1 332.6,414.5 332.1,420.6 671.1,420.7 			"/>
		</g>
		<g>
			<g>
				<g>
					<path fill="#F8BB17" d="M180.5,345.2c-0.8,1.9-6.2,7.9-9.2,6.7c-3-1.3-2.5-9.5-1.7-11.4c1.4-1.1,4.1-3,7.2-1.8
						C179.8,340,180.5,343.3,180.5,345.2z"/>
					<path fill="#F26C25" d="M179.8,342.9c-0.6,1.4-4.8,6.4-7,5.4c-2.2-0.9-1.7-7.4-1.1-8.8s2.9-1.8,5.1-0.9
						C179,339.6,180.3,341.5,179.8,342.9z"/>
				</g>
				<path fill="#ED2A27" d="M173.7,313.9c-11.4-4.7-20.9,12.9-18.9,15.2c2,2.4,11.6-8.7,16.9-1.5C174.5,331.5,177,315.3,173.7,313.9
					z"/>
				<path fill="#ED2A27" d="M195.9,323.1c11.4,4.7,5.6,23.9,2.6,24.1c-3,0.3-2-14.4-10.9-13C182.9,335,192.6,321.8,195.9,323.1z"/>
				<path fill="#FFFFFF" d="M199.9,316.3c-6.2,14.9-16.7,24.7-23.4,21.9c-6.8-2.8-7.2-17.1-1-32c6.2-14.9,21.1-22.9,23.4-21.9
					C201.3,285.2,206.1,301.4,199.9,316.3z"/>
				<polygon fill="#463F37" points="180.5,345.3 169.4,340.7 173.9,333.8 182.4,337.3 				"/>
				<g>
					<g>
						<circle fill="#463F37" cx="191.2" cy="302.1" r="5.2"/>
						<path fill="#FFFFFF" d="M193.3,307.3c-1.4,0.6-2.9,0.6-4.3,0c-2.9-1.2-4.3-4.5-3.1-7.4c0.6-1.4,1.7-2.5,3.1-3.1
							c1.4-0.6,2.9-0.6,4.3,0c1.4,0.6,2.5,1.7,3.1,3.1c0.6,1.4,0.6,2.9,0,4.3C195.8,305.6,194.7,306.7,193.3,307.3z M189.4,297.8
							c-1.1,0.5-2,1.4-2.5,2.5c-1,2.4,0.1,5.1,2.5,6.1c1.1,0.5,2.4,0.5,3.5,0c1.1-0.5,2-1.4,2.5-2.5c0.5-1.1,0.5-2.4,0-3.5
							c-0.5-1.1-1.4-2-2.5-2.5C191.8,297.3,190.5,297.3,189.4,297.8z"/>
					</g>
				</g>
				<g>
					<g>
						<circle fill="#463F37" cx="186.4" cy="314.1" r="3.8"/>
						<path fill="#FFFFFF" d="M188.1,318.1c-1.1,0.4-2.2,0.4-3.3,0c-1.1-0.4-1.9-1.3-2.3-2.3c-0.4-1.1-0.4-2.2,0-3.3
							c0.4-1.1,1.3-1.9,2.3-2.3c1.1-0.4,2.2-0.4,3.3,0c2.2,0.9,3.2,3.4,2.3,5.6C190,316.8,189.1,317.6,188.1,318.1z M185.2,311.1
							c-0.8,0.3-1.4,1-1.8,1.7c-0.3,0.8-0.3,1.7,0,2.5c0.3,0.8,1,1.4,1.7,1.8c0.8,0.3,1.7,0.3,2.5,0c0.8-0.3,1.4-1,1.8-1.7
							c0.7-1.6-0.1-3.5-1.7-4.2C186.9,310.8,186,310.8,185.2,311.1z"/>
					</g>
				</g>
				<g>
					<defs>
						<path id="SVGID_27_" d="M199.9,316.3c-6.2,14.9-16.7,24.7-23.4,21.9c-6.8-2.8-7.2-17.1-1-32c6.2-14.9,21.1-22.9,23.4-21.9
							C201.3,285.2,206.1,301.4,199.9,316.3z"/>
					</defs>
					<clipPath id="SVGID_28_">
						<use xlink:href="#SVGID_27_"  overflow="visible"/>
					</clipPath>
					<path clip-path="url(#SVGID_28_)" fill="#C42723" d="M200,344.6c-3.1,7.6-15.5,9.6-27.6,4.6c-12.1-5-19.3-15.2-16.2-22.8
						c3.1-7.6,8.7-12.4,27.6-4.6C202.6,329.7,203.1,337.1,200,344.6z"/>
					<path clip-path="url(#SVGID_28_)" fill="#ED2A27" d="M223.3,287.2c-3.1,7.6-15.5,9.6-27.6,4.6c-12.1-5-19.3-15.2-16.2-22.8
						c3.1-7.6,8.7-12.4,27.6-4.6C225.9,272.3,226.5,279.7,223.3,287.2z"/>
				</g>
				<path fill="#ED2A27" d="M178.7,326c0.3-0.7,5.9,1.3,5.5,2.3c-0.5,0.9-6.9,13.2-8.4,12.5C174.2,340.1,178.4,326.6,178.7,326z"/>
			</g>
		</g>
		<g>
			<g>
				<g>
					<polygon fill="#463F37" points="403.6,220.3 404.3,226.6 405.1,226.6 404.3,220.3 					"/>
					
						<rect x="403.8" y="223.1" transform="matrix(-6.345392e-003 -1 1 -6.345392e-003 186.1552 631.8346)" fill="#463F37" width="6.3" height="0.8"/>
					<polygon fill="#463F37" points="409.6,220.3 409,226.6 409.7,226.6 410.4,220.3 					"/>
				</g>
				<path fill-rule="evenodd" clip-rule="evenodd" fill="#ED2A27" d="M424,179.8c2.7,4.8,3,11.1,1,17.1c-4,12.3-14.4,21.3-18,21.3
					c-3.6,0-14.1-8.8-18.3-21.1c-2-5.9-1.8-12,0.6-16.8c2.1-4.2,8.1-9.3,13.2-8.8c1.2,0.1,2.8,0.2,4.1,0.6c1.1-0.5,2.6-0.5,3.6-0.7
					C415.1,170.5,421.8,175.8,424,179.8z"/>
				<path fill-rule="evenodd" clip-rule="evenodd" fill="#FFFFFF" d="M410.2,226.3c0,0.2,0,0.4,0,0.6c0,1.5-0.6,2.9-1.6,3.6l-3,0
					c-1-0.7-1.6-2-1.6-3.6c0-0.2,0-0.4,0-0.6L410.2,226.3z"/>
				<path fill-rule="evenodd" clip-rule="evenodd" fill="#FFFFFF" d="M417.8,175.3c5.1,4.8,6.4,13.3,4.2,21.6
					c-3.4,12.3-12.1,21.2-15.1,21.3c-3,0-11.8-8.8-15.3-21.1c-2.3-8.1-1.1-16.6,3.7-21.5c2.3-2.3,5.4-4.6,8.8-4
					c0.7,0.1,1.8,0.1,2.5,0.4c0.7-0.4,1.6-0.4,2.4-0.5C412.2,170.9,415.8,173.4,417.8,175.3z"/>
				<path fill-rule="evenodd" clip-rule="evenodd" fill="#ED2A27" d="M415.4,176.4c2.9,4.9,3.6,12.9,2.2,20.5
					c-2.3,12.3-8.5,21.2-10.6,21.2c-2.1,0-8.4-8.8-10.9-21.1c-1.6-7.7-0.9-15.8,2-20.7c1.7-2.8,4.9-5.4,7.8-4.8
					c0.2,0.1,0.5,0.1,0.7,0.3c0.2-0.1,0.4-0.3,0.7-0.3C410.3,170.6,413.8,173.8,415.4,176.4z"/>
				<path fill-rule="evenodd" clip-rule="evenodd" fill="#FFFFFF" d="M408.7,172.6c2.6,3.4,3.5,14.1,2.7,24.4
					c-1,12.3-3.6,21.2-4.5,21.2c-0.9,0-3.7-8.8-4.8-21.1c-0.9-10.3-0.2-21.2,2.4-24.4C405.8,171.1,407.6,171.1,408.7,172.6z"/>
				<polygon fill-rule="evenodd" clip-rule="evenodd" fill="#463F37" points="417.4,210.3 410.7,219 403.3,219.1 396.4,210.4 				
					"/>
				
					<rect x="403.5" y="219" transform="matrix(-1 6.262889e-003 -6.262889e-003 -1 815.3177 437.3434)" fill-rule="evenodd" clip-rule="evenodd" fill="#F1E4C4" width="7" height="1.8"/>
			</g>
		</g>
		<g>
			<path fill="#414042" d="M482.3,245.6c1.2,0,2.3-0.7,5.6,4c2.5,3.5,2.8,1.3,2.8,1.3s0-1.1,1.3,0.5c1.3,1.5,1.3,1.5,1.3,1.5
				s2.2-3.8,4.7-5.7c0.8-0.6,1.7-1.1,2.5-1.1c3.3,0,6.8,4.1,6.8,4.1s-6.6-3.1-10.4,0.7c-2.8,2.8-1.8,2.8-4.5,3.1
				c-2.8,0.2-4.7-3.9-8.2-5.6c-3.9-1.9-4.2,0.6-6.4,0.6C480,246.7,480.8,245.6,482.3,245.6z"/>
			<path fill="#414042" d="M592.5,460.1c-4.6,1.7-8.6,8.4-11,10.8c-2.2,2.1-7.4-2.7-9.9-5.1c-0.3-0.3-0.6-0.6-0.8-0.8
				c-1.9-1.9-8.5-1.9-8.5-1.9s7,2.6,9.3,4.9c2.3,2.3,9.2,5.1,9.2,5.1s3.7,0.6,3.7-0.9c0-1.5,1.4-2.8,2.6-4c1.2-1.2,7.1-7.3,10.2-7.3
				c3,0,3,0,3,0S597,458.5,592.5,460.1z"/>
			<path fill="#414042" d="M252.6,334.2c0,0,0.5-3.8,3.7-4.9c1.5-0.5,3,0.2,5.2,1.1c3.4,1.3,2.1-0.3,2.1-0.3s-0.3-0.3,0-0.7
				c0.5-0.5,1.8,1,2.5,1c1.4-0.1,3.2-0.6,4.6-2.2c2.8-3.3,4.9-1.4,7.9,0.6c3.1,2.1,4.4,3.6,4.4,3.6s-5.1-3.3-9.2-2.6
				c-2.2,0.4-4.6,4.1-7.1,4.1c-0.2,0,1.2,0.9,1,1c-0.4,0-0.8,0.3-1.1,0.3c-0.3,0.1-1-1.5-1.3-1.4c-0.8,0.3-2.6-0.3-3.9-0.7
				c-3.1-1-2-1.7-5.8-1.2C254.2,332,252.6,334.2,252.6,334.2z"/>
			<path fill="#414042" d="M668.5,446.4c0,0-0.4-3.6-3.6-4.7c-1.4-0.5-2.8,0.2-5,1c-3.2,1.2-2-0.3-2-0.3s0.3-0.3,0-0.7
				c-0.4-0.5-1.7,0.9-2.4,0.9c-1.4-0.1-3.1-0.5-4.4-2.1c-2.7-3.2-4.7-1.3-7.5,0.5c-3,2-4.2,3.4-4.2,3.4s4.9-3.2,8.8-2.5
				c2.1,0.4,4.3,3.9,6.8,3.9c0.2,0-1.2,0.9-1,0.9c0.4,0,0.7,0.2,1,0.3c0.3,0.1,1-1.4,1.2-1.3c0.8,0.3,2.5-0.2,3.7-0.7
				c2.9-1,1.9-1.6,5.5-1.1C667,444.4,668.5,446.4,668.5,446.4z"/>
			<path fill="#414042" d="M602.4,510.4c0,0,0.4-3.3,3.2-4.3c1.3-0.4,2.5,0.2,4.5,0.9c2.9,1.1,1.8-0.2,1.8-0.2s-0.3-0.3,0-0.6
				c0.4-0.5,1.6,0.8,2.2,0.8c1.3-0.1,2.8-0.5,4-1.9c2.4-2.8,4.2-1.2,6.8,0.5c2.7,1.8,3.8,3.1,3.8,3.1s-4.4-2.8-8-2.2
				c-1.9,0.3-3.9,3.5-6.1,3.5c-0.2,0,1.1,0.8,0.9,0.8c-0.3,0-0.7,0.2-0.9,0.3c-0.3,0.1-0.9-1.3-1.1-1.2c-0.7,0.3-2.2-0.2-3.3-0.6
				c-2.6-0.9-1.7-1.5-5-1C603.7,508.5,602.4,510.4,602.4,510.4z"/>
		</g>
		<g>
			<g>
				<image overflow="visible" width="151" height="11" xlink:href="CF5C506F.png"  transform="matrix(1 0 0 1 436 515)">
				</image>
				<path fill="#E03905" d="M551.8,418.3c-7.5-14.7-22.6-25-40.4-25c-17.7,0-45.3,14.9-45.3,45.7c0,7.4,1.8,14.4,5,20.6
					c7.5,14.7,40.4,51.5,40.4,51.5s45.3-47.2,45.3-72.2C556.8,431.5,555,424.5,551.8,418.3z M511.4,461.7
					c-12.5,0-22.8-10.2-22.8-22.8c0-9.5,5.8-17.6,14.1-21c2.7-1.1,5.6-1.7,8.6-1.7c12.5,0,22.8,9.9,22.8,22.4
					c0,9.5-5.8,18-14.1,21.4C517.4,461.1,514.5,461.7,511.4,461.7z M545.4,443.2c0-0.1,0.1-0.1,0.1-0.2c0,0,0,0,0,0
					C545.5,443.1,545.4,443.1,545.4,443.2z M544.9,443.9C544.9,443.9,545,443.8,544.9,443.9C545,443.8,544.9,443.9,544.9,443.9z"/>
			</g>
			<path fill="#C72000" d="M511.4,419.2c10.9,0,19.7,8.6,19.7,19.4c0,8.2-5.1,15.6-12.2,18.5c-2.3,1-4.8,1.5-7.5,1.5
				c-10.9,0-19.7-8.9-19.7-19.7c0-8.2,5.1-15.3,12.2-18.2C506.3,419.7,508.8,419.2,511.4,419.2 M511.4,413.2c-3.4,0-6.7,0.7-9.8,1.9
				c-9.7,4-16,13.4-16,23.8c0,14.2,11.6,25.8,25.8,25.8c3.4,0,6.7-0.7,9.8-1.9c9.6-3.9,16-13.6,16-24.1
				C537.2,424.6,525.7,413.2,511.4,413.2L511.4,413.2z"/>
		</g>
		<g>
			<g>
				<image overflow="visible" width="108" height="8" xlink:href="CF5C506A.png"  transform="matrix(1 0 0 1 505 567)">
				</image>
				<path fill="#F95F35" d="M587.6,498.9c-5.4-10.4-16.1-17.8-28.7-17.8c-12.6,0-32.3,10.6-32.3,32.5c0,5.3,1.3,10.3,3.5,14.7
					c5.4,10.4,28.7,36.7,28.7,36.7s32.3-33.6,32.3-51.4C591.1,508.3,589.8,503.3,587.6,498.9z M558.9,529.7
					c-8.9,0-16.2-7.3-16.2-16.2c0-6.8,4.2-12.5,10-15c1.9-0.8,4-1.2,6.1-1.2c8.9,0,16.2,7,16.2,16c0,6.8-4.2,12.8-10,15.2
					C563.1,529.3,561,529.7,558.9,529.7z M583,516.6c0,0,0.1-0.1,0.1-0.1c0,0,0,0,0,0C583.1,516.5,583,516.5,583,516.6z
					 M582.7,517.1C582.7,517.1,582.7,517,582.7,517.1C582.7,517,582.7,517.1,582.7,517.1z"/>
			</g>
			<path fill="#E03905" d="M558.9,499.5c7.7,0,14,6.1,14,13.8c0,5.9-3.6,11.1-8.7,13.2c-1.6,0.7-3.4,1.1-5.3,1.1
				c-7.7,0-14-6.3-14-14c0-5.9,3.6-10.9,8.7-13C555.2,499.9,557,499.5,558.9,499.5 M558.9,495.2c-2.4,0-4.8,0.5-7,1.4
				c-6.9,2.8-11.4,9.5-11.4,17c0,10.1,8.2,18.3,18.3,18.3c2.4,0,4.8-0.5,7-1.4c6.8-2.8,11.4-9.7,11.4-17.2
				C577.2,503.3,569,495.2,558.9,495.2L558.9,495.2z"/>
		</g>
		<g>
			<g>
				<image overflow="visible" width="189" height="13" xlink:href="CF5C506B.png"  transform="matrix(1 0 0 1 203 517)">
				</image>
				<path fill="#E03905" d="M348.2,396.1c-9.4-18.3-28.3-31.3-50.5-31.3c-22.2,0-56.7,18.6-56.7,57.1c0,9.3,2.2,18.1,6.2,25.8
					c9.4,18.3,50.5,64.5,50.5,64.5s56.7-59,56.7-90.3C354.4,412.7,352.1,403.9,348.2,396.1z M297.7,450.4
					c-15.7,0-28.5-12.8-28.5-28.5c0-11.9,7.3-22.1,17.6-26.3c3.3-1.4,7-2.1,10.8-2.1c15.7,0,28.5,12.4,28.5,28
					c0,11.9-7.3,22.5-17.6,26.7C305.2,449.7,301.5,450.4,297.7,450.4z M340.1,427.3c0.1-0.1,0.1-0.2,0.2-0.2c0,0,0,0,0,0
					C340.2,427.1,340.2,427.2,340.1,427.3z M339.5,428.2c0,0,0.1-0.1,0.1-0.1C339.6,428.1,339.6,428.1,339.5,428.2z"/>
			</g>
			<path fill="#C72000" d="M297.7,397.3c13.6,0,24.7,10.7,24.7,24.3c0,10.3-6.3,19.5-15.3,23.2c-2.9,1.2-6.1,1.9-9.4,1.9
				c-13.6,0-24.7-11.1-24.7-24.7c0-10.3,6.3-19.1,15.3-22.8C291.2,398,294.4,397.3,297.7,397.3 M297.7,389.7
				c-4.2,0-8.4,0.8-12.3,2.4c-12.1,5-20,16.7-20,29.8c0,17.8,14.5,32.2,32.2,32.2c4.2,0,8.4-0.8,12.3-2.4c12-4.9,20-17,20-30.2
				C329.9,404,315.5,389.7,297.7,389.7L297.7,389.7z"/>
		</g>
		<g>
			<g>
				<image overflow="visible" width="374" height="26" xlink:href="CF5C5075.png"  transform="matrix(1 0 0 1 240 560)">
				</image>
				<path fill="#F9521E" d="M527.1,319.9c-18.7-36.4-56.2-62.2-100.3-62.2c-44,0-112.6,37-112.6,113.4c0,18.5,4.5,35.9,12.4,51.3
					c18.7,36.4,100.3,128,100.3,128s112.6-117.2,112.6-179.3C539.5,352.7,535,335.3,527.1,319.9z M426.9,427.7
					c-31.2,0-56.5-25.4-56.5-56.5c0-23.6,14.5-43.8,35.1-52.3c6.6-2.7,13.9-4.2,21.5-4.2c31.2,0,56.5,24.5,56.5,55.7
					c0,23.6-14.5,44.6-35.1,53.1C441.7,426.2,434.5,427.7,426.9,427.7z M511.2,381.7c0.1-0.2,0.2-0.3,0.3-0.5c0,0,0,0.1-0.1,0.1
					C511.4,381.5,511.3,381.6,511.2,381.7z M510,383.5c0-0.1,0.1-0.2,0.2-0.2C510.1,383.4,510.1,383.4,510,383.5z"/>
			</g>
			<path fill="#E03905" d="M426.9,322.2c27,0,49,21.3,49,48.3c0,20.4-12.6,38.7-30.4,46c-5.7,2.4-12,3.7-18.6,3.7c-27,0-49-22-49-49
				c0-20.4,12.6-38,30.4-45.3C414,323.5,420.3,322.2,426.9,322.2 M426.9,307.2c-8.4,0-16.6,1.6-24.3,4.8
				c-24.1,9.9-39.7,33.2-39.7,59.2c0,35.3,28.7,64,64,64c8.4,0,16.6-1.6,24.3-4.8c23.7-9.8,39.7-33.9,39.7-59.9
				C490.9,335.6,462.2,307.2,426.9,307.2L426.9,307.2z"/>
		</g>
	</g>
</g>
</svg>
